<svg width="200" height="42" viewBox="0 0 200 42" fill="none" xmlns="http://www.w3.org/2000/svg">
<path fill-rule="evenodd" clip-rule="evenodd" d="M176.726 18.3763L178.317 0H172.839L171.087 20.2441L176.726 18.3763Z" fill="white"/>
<path fill-rule="evenodd" clip-rule="evenodd" d="M28.817 18.3763L30.408 0H24.9298L23.1743 20.2441L28.817 18.3763Z" fill="white"/>
<path fill-rule="evenodd" clip-rule="evenodd" d="M54.7122 0L53.4976 14.0085L43.8348 0.00641856H34.8267L33.0713 20.2441L38.7108 18.3763L39.9159 4.47053L49.5154 18.3763H58.5994L60.1904 0H54.7122Z" fill="white"/>
<path fill-rule="evenodd" clip-rule="evenodd" d="M83.9612 0L82.7466 14.0085L73.0838 0.00641856H64.0757L62.3203 20.2441L67.9598 18.3763L69.1649 4.47053L78.7645 18.3763H87.8484L89.4426 0H83.9612Z" fill="white"/>
<path fill-rule="evenodd" clip-rule="evenodd" d="M114.224 0H92.3461L91.9761 4.26192H100.136L98.7543 20.2441L104.394 18.3763L105.618 4.26192H113.857L114.224 0Z" fill="white"/>
<path fill-rule="evenodd" clip-rule="evenodd" d="M187.148 13.8512L188.347 0H182.865L181.274 18.3763H199.49L199.879 13.8512H187.148Z" fill="white"/>
<path fill-rule="evenodd" clip-rule="evenodd" d="M20.9861 4.26192L21.3531 0H1.75227L0 20.2441L5.6427 18.3763L6.18356 12.1535H19.6071L19.974 7.89162H6.55046L6.86676 4.26192H20.9861Z" fill="white"/>
<path fill-rule="evenodd" clip-rule="evenodd" d="M151.505 11.2325L156.006 4.06616L159.096 11.2325H151.505ZM162.139 18.3699H168.465L159.862 0H152.612L141.067 18.3763H147.017L149.07 15.1125H160.741L162.139 18.3699Z" fill="white"/>
<path fill-rule="evenodd" clip-rule="evenodd" d="M133.808 8.17403C133.643 8.46588 133.409 8.71139 133.127 8.88844C132.844 9.06548 132.523 9.16848 132.192 9.18816H122.071L122.475 4.49299H132.499C133.764 4.49299 134.027 5.2568 134.112 5.69326C134.261 6.53034 134.151 7.39373 133.796 8.1644L133.808 8.17403ZM135.463 0C139.597 0 140.077 3.02314 139.891 5.32098C139.802 6.37684 139.685 7.70869 139.533 8.1291C139.295 8.82947 138.898 9.4636 138.376 9.98086C137.493 10.8506 136.244 11.2646 135.051 11.4603C135.051 11.4603 135.466 11.4603 135.602 11.4603C139.321 11.6176 138.822 14.3487 138.822 14.3487L138.439 18.3763H132.951L133.1 16.101C133.1 13.5528 130.826 13.7293 130.826 13.7293H121.678L121.267 18.4405L121.229 18.402L115.631 18.3763L117.386 0H135.463Z" fill="white"/>
<path d="M21.0649 31.0569L17.3168 41.9043H13.3821L11.4306 36.3426C11.2535 35.8398 11.0426 35.1669 10.798 34.3239L10.6019 33.6564H10.5102L10.3109 34.34L10.1211 34.9979C9.97563 35.4504 9.82064 35.8997 9.65617 36.349L7.65402 41.9043H3.76044L0.123047 31.0569H2.84634L4.87063 37.0101C4.99504 37.3931 5.14897 37.9205 5.33242 38.5923L5.55066 39.385L5.75309 40.1809H5.84482L6.09469 39.385L6.3414 38.5987C6.47003 38.1858 6.65031 37.6584 6.88226 37.0165L9.04256 31.0569H12.1644L14.2677 37.0165C14.4449 37.5268 14.622 38.0531 14.7928 38.5987L15.0268 39.385L15.2736 40.1809H15.3558L15.5835 39.385L15.7986 38.5923C15.9757 37.9504 16.137 37.4155 16.2825 36.9876L18.3448 31.0569H21.0649Z" fill="white"/>
<path d="M36.8925 39.8246H30.8418L29.9688 41.9043H27.1538L31.816 31.0569H35.814L40.5584 41.9043H37.7971L36.8925 39.8246ZM36.2599 38.3034L33.8434 32.6551L31.4617 38.3034H36.2599Z" fill="white"/>
<path d="M47.8589 41.9043V31.0569H54.7509C56.7078 31.0569 58.0784 31.3885 58.8628 32.0518C59.6472 32.715 60.0394 33.8746 60.0394 35.5306C60.0394 38.2393 59.7231 39.9787 59.0905 40.7489C58.4579 41.5191 57.0378 41.9043 54.83 41.9043H47.8589ZM50.5189 40.1712H54.3145C55.5796 40.1712 56.4031 39.9455 56.7847 39.4941C57.1664 39.0426 57.353 38.0424 57.3446 36.4934C57.3446 34.893 57.1769 33.8757 56.8417 33.4414C56.5064 33.0071 55.7188 32.7931 54.4789 32.7995H50.5253L50.5189 40.1712Z" fill="white"/>
<path d="M70.7396 31.0569V41.9043H68.0796V31.0569H70.7396Z" fill="white"/>
<path d="M92.3353 31.0569V41.9043H87.8281L83.8175 35.9446C83.6214 35.6494 83.3083 35.1295 82.8845 34.3881L82.4322 33.6083L81.9894 32.8316H81.8881L81.9293 33.5473L81.9609 34.2533L81.9799 35.675V41.8978H79.3198V31.0569H83.8302L87.4739 36.5576C87.7902 37.0422 88.1698 37.6359 88.5936 38.3291L89.1281 39.2117L89.6627 40.1006H89.7544L89.7228 39.401L89.6943 38.7014L89.6722 37.3021V31.0569H92.3353Z" fill="white"/>
<path d="M106.414 36.1332H112.6L112.641 38.2867C112.641 39.8549 112.26 40.8659 111.496 41.3194C110.733 41.773 109.029 41.9998 106.385 41.9998C103.962 41.9998 102.358 41.6981 101.571 41.0948C100.784 40.4882 100.388 39.2591 100.388 37.3977C100.388 35.025 100.545 33.5273 100.859 32.9047C101.04 32.5404 101.29 32.2164 101.596 31.9518C101.902 31.6872 102.257 31.4875 102.64 31.3643C103.431 31.1011 104.779 30.9684 106.686 30.9663C109.178 30.9663 110.787 31.1717 111.512 31.5825C112.238 31.9933 112.6 32.9015 112.6 34.3072H109.909C109.861 33.5979 109.662 33.155 109.311 32.9849C108.96 32.8149 108.071 32.725 106.654 32.725C105.113 32.725 104.135 32.8737 103.722 33.1711C103.309 33.4685 103.098 34.1649 103.089 35.2603V36.3483L103.111 37.7411C103.111 38.8109 103.322 39.4955 103.744 39.795C104.152 40.0871 105.107 40.2347 106.591 40.2347C108.074 40.2347 108.966 40.1095 109.358 39.8624C109.75 39.6153 109.95 39.0248 109.95 38.0973V37.6512H106.414V36.1332Z" fill="white"/>
<path d="M137.472 36.1332H143.646L143.687 38.2867C143.687 39.8549 143.304 40.8659 142.539 41.3194C141.773 41.773 140.071 41.9998 137.431 41.9998C135.008 41.9998 133.402 41.6981 132.613 41.0948C131.826 40.4882 131.434 39.2591 131.434 37.3977C131.434 35.025 131.591 33.5273 131.905 32.9047C132.084 32.5398 132.333 32.2153 132.639 31.9506C132.944 31.6859 133.299 31.4865 133.682 31.3643C134.477 31.1011 135.826 30.9684 137.728 30.9663C140.22 30.9663 141.829 31.1717 142.555 31.5825C143.28 31.9933 143.644 32.9036 143.646 34.3136H140.951C140.907 33.6043 140.704 33.1615 140.353 32.9914C140.002 32.8213 139.113 32.7314 137.699 32.7314C136.156 32.7314 135.177 32.8801 134.764 33.1775C134.353 33.4728 134.132 34.1692 134.132 35.2667V36.3547L134.151 37.7475C134.151 38.8173 134.356 39.5019 134.767 39.8015C135.179 40.101 136.127 40.2475 137.614 40.2411C139.066 40.2411 139.986 40.116 140.382 39.8688C140.777 39.6217 140.97 39.0312 140.97 38.1037V37.6577H137.472V36.1332Z" fill="white"/>
<path d="M154.036 32.7899V35.5884H160.609V37.1064H154.036V40.1712H161.029V41.9043H151.376V31.0569H160.969V32.7899H154.036Z" fill="white"/>
<path d="M177.593 39.8246H171.545L170.672 41.9043H167.857L172.523 31.0569H176.514L181.259 41.9043H178.498L177.593 39.8246ZM176.96 38.3034L174.541 32.6551L172.156 38.3034H176.96Z" fill="white"/>
<path d="M188.562 41.9043V31.0569H195.47C197.191 31.0569 198.376 31.2869 199.026 31.7469C199.677 32.209 200 33.0306 200 34.2533C200 35.3477 199.838 36.0987 199.513 36.4998C199.187 36.901 198.523 37.1802 197.514 37.3342V37.408C199.07 37.4808 199.847 38.1826 199.845 39.5133V41.9043H197.185V39.9273C197.185 38.8084 196.473 38.2489 195.05 38.2489H191.223V41.9043H188.562ZM191.223 36.5159H195.043C195.954 36.5159 196.558 36.3907 196.856 36.1404C197.153 35.8901 197.302 35.3851 197.302 34.6256C197.302 33.8522 197.175 33.3419 196.916 33.1269C196.656 32.9118 196.097 32.8059 195.23 32.8059H191.223V36.5159Z" fill="white"/>
</svg>
