<svg width="9" height="14" viewBox="0 0 9 14" fill="none" xmlns="http://www.w3.org/2000/svg">
<path d="M4.49993 1.26465C2.40284 2.3734 0 2.37734 0 2.37734V7.73723C0.225195 10.519 3.85482 12.3644 4.48404 12.7172V12.7352L4.49993 12.7261L4.51596 12.7352V12.7172C5.14571 12.3644 8.77467 10.519 9 7.73723V2.37734C9 2.37734 6.5969 2.3734 4.49993 1.26465Z" fill="#282929"/>
<path d="M4.49993 2.61548C5.71162 3.1554 6.94132 3.39911 7.80779 3.50889V7.68133C7.76805 8.0709 7.61505 8.47446 7.35369 8.88154C7.09842 9.27912 6.73957 9.68213 6.28719 10.079C5.65969 10.6297 4.98159 11.056 4.50364 11.3333L4.49993 11.3311L4.49622 11.3333C4.01828 11.0566 3.34018 10.6297 2.71281 10.079C2.26043 9.68213 1.90158 9.27844 1.64618 8.88154C1.38482 8.47446 1.23195 8.0709 1.19221 7.68133V3.50889C2.05921 3.39911 3.28825 3.15608 4.49993 2.61548ZM4.49993 1.26465C2.40284 2.3734 0 2.37734 0 2.37734V7.73723C0.225195 10.519 3.85482 12.3644 4.48404 12.7172V12.7352L4.49993 12.7261L4.51596 12.7352V12.7172C5.14571 12.3644 8.77467 10.519 9 7.73723V2.37734C9 2.37734 6.5969 2.3734 4.49993 1.26465Z" fill="#282929"/>
</svg>
