<svg width="14" height="10" viewBox="0 0 14 10" fill="none" xmlns="http://www.w3.org/2000/svg">
<path d="M9.28015 4.88445L13.9999 7.86821V1.77469L9.28015 4.88445Z" fill="#BDBDBD"/>
<path d="M0 1.77469V7.86821L4.71976 4.88445L0 1.77469Z" fill="#BDBDBD"/>
<path d="M13.125 0H0.874997C0.438371 0 0.0918703 0.325501 0.0262451 0.744627L7.00001 5.33926L13.9738 0.744627C13.9082 0.325501 13.5617 0 13.125 0Z" fill="#BDBDBD"/>
<path d="M8.47885 5.41268L7.24072 6.22818C7.16722 6.27631 7.0841 6.29993 7.0001 6.29993C6.9161 6.29993 6.83297 6.27631 6.75947 6.22818L5.52134 5.4118L0.0280762 8.88644C0.0954514 9.30207 0.440202 9.62494 0.875079 9.62494H13.1251C13.56 9.62494 13.9047 9.30207 13.9721 8.88644L8.47885 5.41268Z" fill="#BDBDBD"/>
</svg>
