<svg width="21" height="11" viewBox="0 0 21 11" fill="none" xmlns="http://www.w3.org/2000/svg">
<path d="M20.8502 5.10809C20.6711 4.90835 16.3644 0.210938 10.9702 0.210938C5.576 0.210938 1.26932 4.90835 1.09023 5.10809C0.890496 5.33133 0.890496 5.66881 1.09023 5.89205C1.26932 6.09179 5.57608 10.7892 10.9702 10.7892C16.3643 10.7892 20.6711 6.09179 20.8502 5.89205C21.0499 5.66881 21.0499 5.33133 20.8502 5.10809ZM10.9702 9.61384C8.70211 9.61384 6.85644 7.76817 6.85644 5.50007C6.85644 3.23197 8.70211 1.3863 10.9702 1.3863C13.2383 1.3863 15.084 3.23197 15.084 5.50007C15.084 7.76817 13.2383 9.61384 10.9702 9.61384Z" fill="#BDBDBD"/>
<path d="M11.5583 4.32481C11.5583 3.7336 11.8518 3.21351 12.2983 2.89361C11.8976 2.68851 11.4508 2.56177 10.9706 2.56177C9.35047 2.56177 8.03223 3.88002 8.03223 5.50017C8.03223 7.12033 9.35047 8.43858 10.9706 8.43858C12.4212 8.43858 13.6218 7.37942 13.859 5.99547C12.6755 6.37649 11.5583 5.48145 11.5583 4.32481Z" fill="#BDBDBD"/>
</svg>
