<svg width="39" height="39" viewBox="0 0 39 39" fill="none" xmlns="http://www.w3.org/2000/svg">
<path d="M33.5888 8.0293H5.3847C3.68043 8.0293 2.29395 9.41585 2.29395 11.1201V27.8797C2.29395 29.5839 3.68043 30.9705 5.3847 30.9705H33.5888C35.2931 30.9705 36.6796 29.584 36.6796 27.8797V11.1201C36.6796 9.41585 35.2931 8.0293 33.5888 8.0293V8.0293ZM4.30782 23.0383H34.6657V24.9622H4.30782V23.0383ZM5.3847 10.0432H33.5888C34.1826 10.0432 34.6657 10.5262 34.6657 11.1201V21.0244H4.30782V11.1201C4.30782 10.5263 4.79088 10.0432 5.3847 10.0432ZM33.5888 28.9566H5.3847C4.79088 28.9566 4.30782 28.4735 4.30782 27.8797V26.9761H34.6657V27.8797C34.6657 28.4735 34.1826 28.9566 33.5888 28.9566Z" fill="#D51635"/>
<path d="M8.05869 14.2775H14.745C15.3011 14.2775 15.752 13.8267 15.752 13.2706C15.752 12.7145 15.3011 12.2637 14.745 12.2637H8.05869C7.5026 12.2637 7.05176 12.7145 7.05176 13.2706C7.05176 13.8267 7.50253 14.2775 8.05869 14.2775Z" fill="#D51635"/>
<path d="M8.05869 18.3437H14.745C15.3011 18.3437 15.752 17.8929 15.752 17.3368C15.752 16.7807 15.3011 16.3298 14.745 16.3298H8.05869C7.5026 16.3298 7.05176 16.7807 7.05176 17.3368C7.05176 17.8929 7.50253 18.3437 8.05869 18.3437Z" fill="#D51635"/>
<path d="M27.6006 18.1841C29.1891 18.1841 30.4814 16.8918 30.4814 15.3032C30.4814 13.7147 29.1891 12.4224 27.6006 12.4224C26.0121 12.4224 24.7197 13.7147 24.7197 15.3032C24.7197 16.8918 26.0121 18.1841 27.6006 18.1841ZM27.6006 14.4362C28.0786 14.4362 28.4675 14.8251 28.4675 15.3032C28.4675 15.7813 28.0786 16.1702 27.6006 16.1702C27.1225 16.1702 26.7336 15.7813 26.7336 15.3032C26.7336 14.8251 27.1225 14.4362 27.6006 14.4362Z" fill="#D51635"/>
</svg>
