<svg xmlns="http://www.w3.org/2000/svg" viewBox="0 0 124.59 127.5"><g id="Layer_2" data-name="Layer 2"><g id="Layer_1-2" data-name="Layer 1"><path d="M123.59,4.89a9,9,0,0,0-8-4.89H9A9,9,0,0,0,1.7,14.31l39,54.93.13.18a7.09,7.09,0,0,1,1.4,4.23v44.81a9,9,0,0,0,2.61,6.39,9,9,0,0,0,9.81,2l21.78-8.3a8.77,8.77,0,0,0,6-8.47V73.66a7.18,7.18,0,0,1,1.4-4.24l39.1-55.09A9,9,0,0,0,123.59,4.89ZM52.18,61.13,18.77,14.07h87.05l-33.39,47a21.12,21.12,0,0,0-4.12,12.55v32.91l-12,4.58V73.65A21,21,0,0,0,52.18,61.13Z"/></g></g></svg>