<svg width="14" height="10" viewBox="0 0 14 10" fill="none" xmlns="http://www.w3.org/2000/svg">
<path d="M9.28027 4.88442L14 7.86818V1.77466L9.28027 4.88442Z" fill="white"/>
<path d="M0 1.77466V7.86818L4.71976 4.88442L0 1.77466Z" fill="white"/>
<path d="M13.1252 0H0.87512C0.438493 0 0.0919924 0.325501 0.0263672 0.744627L7.00014 5.33926L13.9739 0.744627C13.9083 0.325501 13.5618 0 13.1252 0Z" fill="white"/>
<path d="M8.47909 5.41274L7.24097 6.22824C7.16747 6.27637 7.08434 6.29999 7.00034 6.29999C6.91634 6.29999 6.83321 6.27637 6.75971 6.22824L5.52159 5.41187L0.0283203 8.8865C0.0956955 9.30213 0.440446 9.625 0.875323 9.625H13.1254C13.5602 9.625 13.905 9.30213 13.9724 8.8865L8.47909 5.41274Z" fill="white"/>
</svg>
