<svg width="3" height="15" viewBox="0 0 3 15" fill="none" xmlns="http://www.w3.org/2000/svg">
<path d="M-2.13745e-05 1.50001C-2.14603e-05 2.32844 0.671556 3.00002 1.49999 3.00002C2.32842 3.00002 3 2.32844 3 1.50001C3 0.671578 2.32842 -1.23949e-08 1.49999 -2.76848e-08C0.671557 -4.29747e-08 -2.12888e-05 0.671578 -2.13745e-05 1.50001Z" fill="#4F4F4F"/>
<path d="M-2.13745e-05 7.50001C-2.14603e-05 8.32844 0.671556 9.00002 1.49999 9.00002C2.32842 9.00002 3 8.32844 3 7.50001C3 6.67158 2.32842 6 1.49999 6C0.671557 6 -2.12888e-05 6.67158 -2.13745e-05 7.50001Z" fill="#4F4F4F"/>
<path d="M-2.13745e-05 13.5C-2.14603e-05 14.3284 0.671556 15 1.49999 15C2.32842 15 3 14.3284 3 13.5C3 12.6716 2.32842 12 1.49999 12C0.671557 12 -2.12888e-05 12.6716 -2.13745e-05 13.5Z" fill="#4F4F4F"/>
</svg>
