<svg width="17" height="16" viewBox="0 0 17 16" fill="none" xmlns="http://www.w3.org/2000/svg">
<path d="M9.20598 7.69361L11.2473 9.22461L9.20598 7.69361ZM9.20598 7.69361V4.56094C9.20598 4.17063 8.89033 3.85498 8.50002 3.85498C8.10972 3.85498 7.79407 4.17063 7.79407 4.56094V8.04662C7.79407 8.26869 7.89837 8.47844 8.07653 8.61144C8.07659 8.61149 8.07664 8.61153 8.0767 8.61158L10.4002 10.3542C10.4002 10.3542 10.4002 10.3542 10.4002 10.3542C10.5271 10.4494 10.6757 10.4954 10.8232 10.4954C11.0377 10.4954 11.2499 10.3989 11.3887 10.2123C11.623 9.90071 11.5592 9.45824 11.2474 9.22467L9.20598 7.69361Z" fill="#2D9CDB" stroke="#2D9CDB" stroke-width="0.25"/>
<path d="M8.5 0.375C4.29521 0.375 0.875 3.79521 0.875 8C0.875 12.2048 4.29521 15.625 8.5 15.625C12.7048 15.625 16.125 12.2048 16.125 8C16.125 3.79521 12.7048 0.375 8.5 0.375ZM8.5 14.2131C5.07465 14.2131 2.28688 11.4253 2.28688 8C2.28688 4.57465 5.07465 1.78688 8.5 1.78688C11.9259 1.78688 14.7131 4.57464 14.7131 8C14.7131 11.4253 11.9253 14.2131 8.5 14.2131Z" fill="#2D9CDB" stroke="#2D9CDB" stroke-width="0.25"/>
</svg>
