<svg width="14" height="14" viewBox="0 0 14 14" fill="none" xmlns="http://www.w3.org/2000/svg">
<path d="M6.61397 0.733415C6.68646 0.590485 6.83601 0.5 6.99978 0.5C7.16356 0.499972 7.31313 0.590458 7.38562 0.733387L9.06381 4.04252C9.22162 4.35368 9.52662 4.5694 9.87945 4.61927L13.6316 5.15016C13.7937 5.17311 13.9283 5.28358 13.9789 5.43519C14.0295 5.58677 13.9874 5.7532 13.8701 5.86448L11.1552 8.44055C10.8999 8.68281 10.7834 9.03179 10.8436 9.37377L11.4842 13.0105C11.5119 13.1676 11.4456 13.3264 11.313 13.42C11.1806 13.5138 11.0049 13.5261 10.86 13.4519L7.50389 11.7349C7.18833 11.5734 6.81132 11.5734 6.4957 11.735L3.13993 13.4519C2.99495 13.526 2.8193 13.5136 2.68683 13.4199C2.55432 13.3263 2.488 13.1675 2.51567 13.0104L3.15654 9.37394C3.21684 9.03184 3.10033 8.68281 2.84498 8.4405L0.129942 5.8645C0.0126908 5.75323 -0.0295458 5.5868 0.0210699 5.43522C0.0716856 5.28363 0.20632 5.17316 0.368392 5.15019L4.12043 4.61933C4.47326 4.5694 4.77829 4.35371 4.9361 4.0425L6.61397 0.733415Z" fill="#D51635"/>
</svg>
