<svg width="39" height="39" viewBox="0 0 39 39" fill="none" xmlns="http://www.w3.org/2000/svg">
<path d="M32.3393 23.5572V11.3555C32.3393 9.52143 30.8472 8.0293 29.0131 8.0293H4.47317C2.6391 8.0293 1.14697 9.52143 1.14697 11.3555V27.7647C1.14697 29.5988 2.6391 31.0909 4.47317 31.0909H23.4713C23.4703 31.1402 23.4694 31.1893 23.4694 31.2388C23.4694 35.5182 26.9511 38.9999 31.2306 38.9999C35.5101 38.9999 38.9917 35.5182 38.9917 31.2388C38.9917 27.3357 36.0955 24.0968 32.3393 23.5572ZM4.47317 10.2468H29.0131C29.6245 10.2468 30.1218 10.7441 30.1218 11.3555V12.0207H3.36444V11.3555C3.36444 10.7441 3.86181 10.2468 4.47317 10.2468ZM3.36444 14.2382H30.1218V16.4557H3.36444V14.2382ZM4.47317 28.8735C3.86181 28.8735 3.36444 28.3761 3.36444 27.7647V18.6731H30.1218V23.5572C27.1592 23.9828 24.7319 26.0877 23.8384 28.8735H4.47317ZM31.2306 36.7824C28.1738 36.7824 25.6869 34.2955 25.6869 31.2388C25.6869 28.182 28.1738 25.6951 31.2306 25.6951C34.2873 25.6951 36.7742 28.182 36.7742 31.2388C36.7742 34.2955 34.2873 36.7824 31.2306 36.7824Z" fill="#D51635"/>
<path d="M32.8488 29.1983L30.9718 31.0753L30.3883 30.4918C29.9554 30.0588 29.2534 30.0588 28.8204 30.4918C28.3874 30.9248 28.3874 31.6268 28.8204 32.0598L30.1878 33.4272C30.4043 33.6437 30.688 33.752 30.9717 33.752C31.2554 33.752 31.5393 33.6438 31.7557 33.4272L34.4166 30.7662C34.8496 30.3332 34.8496 29.6313 34.4166 29.1983C33.9838 28.7653 33.2817 28.7653 32.8488 29.1983V29.1983Z" fill="#D51635"/>
<path d="M6.69076 23.1081H9.46259C10.0749 23.1081 10.5713 22.6117 10.5713 21.9994C10.5713 21.387 10.0749 20.8906 9.46259 20.8906H6.69076C6.07845 20.8906 5.58203 21.387 5.58203 21.9994C5.58203 22.6117 6.07845 23.1081 6.69076 23.1081Z" fill="#D51635"/>
<path d="M12.9736 24.4385H6.69076C6.07845 24.4385 5.58203 24.9349 5.58203 25.5472C5.58203 26.1595 6.07845 26.6559 6.69076 26.6559H12.9736C13.5859 26.6559 14.0823 26.1595 14.0823 25.5472C14.0823 24.9349 13.5859 24.4385 12.9736 24.4385Z" fill="#D51635"/>
</svg>
