<svg width="32" height="30" viewBox="0 0 32 30" fill="none" xmlns="http://www.w3.org/2000/svg">
<path d="M30.3308 8.91202C32.7833 8.91202 31.809 11.4476 31.809 11.4476L28.522 21.1627C28.522 21.1627 28.2525 22.606 26.8617 22.606H10.2736C8.62057 22.606 8.54921 20.7942 8.54921 20.7942L6.4695 5.26499L1.13042 3.90984C0.940329 3.86313 0.7613 3.77892 0.603675 3.66207C0.446049 3.54521 0.312952 3.39804 0.212069 3.22903C0.111186 3.06003 0.0445166 2.87255 0.0159131 2.67742C-0.0126904 2.4823 -0.00266151 2.28339 0.0454198 2.09219C0.250769 1.29349 1.06925 0.810449 1.87172 1.01453L8.20259 2.62075C8.7997 2.77197 9.2439 3.27263 9.32109 3.88194L10.2721 11.5753L11.2683 19.4743H26.2762L27.0583 16.858L14.4752 16.8536C14.313 16.8545 14.1522 16.8233 14.002 16.7616C13.8518 16.6999 13.7151 16.609 13.5998 16.4941C13.4844 16.3792 13.3927 16.2424 13.3297 16.0918C13.2668 15.9411 13.2339 15.7794 13.2329 15.6159C13.2329 14.9331 13.7892 14.3782 14.4767 14.3782L27.7938 14.3752L28.6239 11.5783H15.5253C15.3504 11.5794 15.1771 11.5459 15.0152 11.4795C14.8532 11.4131 14.7059 11.3153 14.5814 11.1915C14.457 11.0677 14.358 10.9204 14.29 10.758C14.2221 10.5957 14.1865 10.4214 14.1854 10.2452C14.1854 9.50811 14.7854 8.91055 15.5253 8.91055L30.3308 8.91202ZM23.6169 24.6499C25.0922 24.6499 26.2908 25.8391 26.2908 27.3073C26.2908 28.777 25.0922 29.9677 23.6169 29.9677C23.2681 29.97 22.9223 29.903 22.5992 29.7706C22.2761 29.6381 21.9821 29.4428 21.7339 29.1957C21.4857 28.9487 21.2882 28.6547 21.1528 28.3307C21.0173 28.0067 20.9465 27.6589 20.9444 27.3073C20.9444 25.8391 22.1401 24.6499 23.6169 24.6499ZM11.9513 24.6499C13.4281 24.6499 14.6252 25.8391 14.6252 27.3073C14.6252 28.777 13.4281 29.9677 11.9528 29.9677C11.6039 29.9702 11.2579 29.9034 10.9346 29.771C10.6114 29.6386 10.3172 29.4433 10.0688 29.1962C9.82048 28.9492 9.62289 28.6552 9.48734 28.331C9.35179 28.0069 9.28095 27.659 9.27885 27.3073C9.27885 25.8391 10.476 24.6499 11.9528 24.6499H11.9513Z" fill="white"/>
</svg>
