<svg width="13" height="12" viewBox="0 0 13 12" fill="none" xmlns="http://www.w3.org/2000/svg">
<path d="M12.0884 1.68839L12.1768 1.6L12.0884 1.51161L10.9884 0.411612L10.9 0.323223L10.8116 0.411612L6.5 4.72322L2.18839 0.411612L2.1 0.323223L2.01161 0.411612L0.911612 1.51161L0.823223 1.6L0.911612 1.68839L5.22322 6L0.911612 10.3116L0.823223 10.4L0.911612 10.4884L2.01161 11.5884L2.1 11.6768L2.18839 11.5884L6.5 7.27678L10.8116 11.5884L10.9 11.6768L10.9884 11.5884L12.0884 10.4884L12.1768 10.4L12.0884 10.3116L7.77678 6L12.0884 1.68839Z" fill="#828282" stroke="#828282" stroke-width="0.25"/>
</svg>
