<svg width="11" height="13" viewBox="0 0 11 13" fill="none" xmlns="http://www.w3.org/2000/svg">
<path d="M9.94231 1.625H7.61538V1.21875C7.61538 0.546736 7.046 0 6.34615 0H4.65385C3.954 0 3.38462 0.546736 3.38462 1.21875V1.625H1.05769C0.474481 1.625 0 2.08061 0 2.64062V4.0625C0 4.28685 0.189433 4.46875 0.423077 4.46875H0.654289L1.0198 11.8392C1.05209 12.4901 1.60896 13 2.28758 13H8.71242C9.39107 13 9.94794 12.4901 9.9802 11.8392L10.3457 4.46875H10.5769C10.8106 4.46875 11 4.28685 11 4.0625V2.64062C11 2.08061 10.5255 1.625 9.94231 1.625ZM4.23077 1.21875C4.23077 0.994754 4.42057 0.8125 4.65385 0.8125H6.34615C6.57943 0.8125 6.76923 0.994754 6.76923 1.21875V1.625H4.23077V1.21875ZM0.846154 2.64062C0.846154 2.52863 0.941055 2.4375 1.05769 2.4375H9.94231C10.0589 2.4375 10.1538 2.52863 10.1538 2.64062V3.65625C10.0235 3.65625 1.38645 3.65625 0.846154 3.65625V2.64062ZM9.135 11.8006C9.12424 12.0175 8.93861 12.1875 8.71242 12.1875H2.28758C2.06136 12.1875 1.87574 12.0175 1.865 11.8006L1.50139 4.46875H9.49861L9.135 11.8006Z" fill="#D51635"/>
<path d="M5.49998 11.375C5.73363 11.375 5.92306 11.1931 5.92306 10.9688V5.6875C5.92306 5.46315 5.73363 5.28125 5.49998 5.28125C5.26634 5.28125 5.0769 5.46315 5.0769 5.6875V10.9688C5.0769 11.1931 5.26631 11.375 5.49998 11.375Z" fill="#D51635"/>
<path d="M7.6154 11.375C7.84904 11.375 8.03848 11.1931 8.03848 10.9688V5.6875C8.03848 5.46315 7.84904 5.28125 7.6154 5.28125C7.38175 5.28125 7.19232 5.46315 7.19232 5.6875V10.9688C7.19232 11.1931 7.38173 11.375 7.6154 11.375Z" fill="#D51635"/>
<path d="M3.38463 11.375C3.61827 11.375 3.8077 11.1931 3.8077 10.9688V5.6875C3.8077 5.46315 3.61827 5.28125 3.38463 5.28125C3.15098 5.28125 2.96155 5.46315 2.96155 5.6875V10.9688C2.96155 11.1931 3.15095 11.375 3.38463 11.375Z" fill="#D51635"/>
</svg>
