<svg width="35" height="35" viewBox="0 0 35 35" fill="none" xmlns="http://www.w3.org/2000/svg">
<g clip-path="url(#clip0)">
<path d="M29.873 5.12527C26.5842 1.87703 22.1439 0.0619176 17.5214 0.0762562C12.8989 0.0905948 8.4699 1.93322 5.20132 5.2018C1.93273 8.47039 0.0901065 12.8994 0.0757679 17.5219C0.0614293 22.1443 1.87654 26.5847 5.12479 29.8735C6.74612 31.5151 8.67606 32.8199 10.8036 33.7127C12.9311 34.6056 15.2141 35.0689 17.5214 35.0761C19.8287 35.0832 22.1146 34.6341 24.2476 33.7544C26.3806 32.8748 28.3186 31.582 29.9501 29.9505C31.5815 28.3191 32.8743 26.3811 33.7539 24.248C34.6336 22.115 35.0828 19.8291 35.0756 17.5219C35.0684 15.2146 34.6051 12.9316 33.7122 10.8041C32.8194 8.67655 31.5146 6.74661 29.873 5.12527ZM17.4996 10.3523C18.4895 10.3523 19.4571 10.6459 20.2802 11.1958C21.1032 11.7458 21.7447 12.5274 22.1235 13.4419C22.5023 14.3564 22.6014 15.3627 22.4083 16.3336C22.2152 17.3044 21.7385 18.1962 21.0386 18.8962C20.3386 19.5961 19.4469 20.0728 18.476 20.2659C17.5052 20.459 16.4989 20.3599 15.5843 19.9811C14.6698 19.6023 13.8882 18.9608 13.3382 18.1377C12.7883 17.3147 12.4948 16.3471 12.4948 15.3572C12.4963 14.0303 13.024 12.7582 13.9623 11.8199C14.9006 10.8816 16.1727 10.3538 17.4996 10.3523ZM17.4996 23.2113C19.387 23.2057 21.2185 23.8519 22.6843 25.0408C24.1502 26.2297 25.1606 27.8883 25.5448 29.7362C23.1569 31.3104 20.3597 32.1495 17.4996 32.1495C14.6396 32.1495 11.8424 31.3104 9.45449 29.7362C9.8389 27.8886 10.8494 26.2303 12.3153 25.0417C13.7811 23.8531 15.6124 23.207 17.4996 23.2127V23.2113ZM24.9248 23.2212C24.1644 22.5321 23.3117 21.9524 22.3912 21.4986C23.6662 20.4839 24.5942 19.0979 25.0464 17.5324C25.4987 15.9669 25.453 14.2996 24.9156 12.7613C24.3782 11.223 23.3757 9.88984 22.047 8.94657C20.7183 8.0033 19.1291 7.49657 17.4996 7.49657C15.8701 7.49657 14.281 8.0033 12.9523 8.94657C11.6236 9.88984 10.6211 11.223 10.0837 12.7613C9.54626 14.2996 9.50053 15.9669 9.95281 17.5324C10.4051 19.0979 11.333 20.4839 12.608 21.4986C10.0101 22.7799 8.01664 25.0269 7.05398 27.7589C5.02994 25.7005 3.65922 23.0899 3.11394 20.255C2.56865 17.4201 2.87312 14.4873 3.98911 11.8249C5.1051 9.16244 6.98285 6.88909 9.38655 5.29031C11.7903 3.69152 14.6128 2.83857 17.4996 2.83857C20.3865 2.83857 23.209 3.69152 25.6127 5.29031C28.0164 6.88909 29.8941 9.16244 31.0101 11.8249C32.1261 14.4873 32.4306 17.4201 31.8853 20.255C31.34 23.0899 29.9693 25.7005 27.9453 27.7589C27.3323 26.0183 26.294 24.4585 24.9248 23.2212Z" fill="white"/>
</g>
<defs>
<clipPath id="clip0">
<rect width="35" height="35" fill="white"/>
</clipPath>
</defs>
</svg>
