<svg width="20" height="20" viewBox="0 0 20 20" fill="none" xmlns="http://www.w3.org/2000/svg">
<path d="M19.0022 17.2623H5.62833C5.07712 17.2623 4.63037 16.8155 4.63037 16.2643C4.63037 15.7131 5.07712 15.2664 5.62833 15.2664H19.0019C19.5531 15.2664 19.9999 15.7131 19.9999 16.2643C19.9999 16.8155 19.5534 17.2623 19.0022 17.2623Z" fill="white"/>
<path d="M19.0022 10.9981H5.62833C5.07712 10.9981 4.63037 10.5514 4.63037 10.0002C4.63037 9.44895 5.07712 9.0022 5.62833 9.0022H19.0019C19.5531 9.0022 19.9999 9.44895 19.9999 10.0002C20.0002 10.5514 19.5534 10.9981 19.0022 10.9981Z" fill="white"/>
<path d="M19.0022 4.73394H5.62833C5.07712 4.73394 4.63037 4.28719 4.63037 3.73599C4.63037 3.18479 5.07712 2.73804 5.62833 2.73804H19.0019C19.5531 2.73804 19.9999 3.18479 19.9999 3.73599C19.9999 4.28719 19.5534 4.73394 19.0022 4.73394Z" fill="white"/>
<path d="M1.34025 5.15341C2.08045 5.15341 2.6805 4.55335 2.6805 3.81315C2.6805 3.07295 2.08045 2.4729 1.34025 2.4729C0.600051 2.4729 0 3.07295 0 3.81315C0 4.55335 0.600051 5.15341 1.34025 5.15341Z" fill="white"/>
<path d="M1.34025 11.3404C2.08045 11.3404 2.6805 10.7404 2.6805 10.0002C2.6805 9.25996 2.08045 8.65991 1.34025 8.65991C0.600051 8.65991 0 9.25996 0 10.0002C0 10.7404 0.600051 11.3404 1.34025 11.3404Z" fill="white"/>
<path d="M1.34025 17.5274C2.08045 17.5274 2.6805 16.9274 2.6805 16.1872C2.6805 15.447 2.08045 14.8469 1.34025 14.8469C0.600051 14.8469 0 15.447 0 16.1872C0 16.9274 0.600051 17.5274 1.34025 17.5274Z" fill="white"/>
</svg>
