<svg width="22" height="18" viewBox="0 0 22 18" fill="none" xmlns="http://www.w3.org/2000/svg">
<path d="M4.25847 16.9332L13.8895 1.06651H17.5011L8.11088 16.9332H4.25847ZM8.41732 6.39318C8.41732 7.29984 8.15247 8.00251 7.62277 8.50118C7.10911 8.98473 6.37073 9.22651 5.40763 9.22651H3.24065C2.27755 9.22651 1.53114 8.98473 1.00144 8.50118C0.487784 8.00251 0.230957 7.29984 0.230957 6.39318V3.67318C0.230957 2.76651 0.487784 2.0714 1.00144 1.58784C1.53114 1.08918 2.27755 0.839844 3.24065 0.839844H5.40763C6.37073 0.839844 7.10911 1.08918 7.62277 1.58784C8.15247 2.0714 8.41732 2.76651 8.41732 3.67318V6.39318ZM5.52802 3.67318C5.52802 3.14429 5.24711 2.87984 4.6853 2.87984H3.96298C3.40117 2.87984 3.12026 3.14429 3.12026 3.67318V6.39318C3.12026 6.92207 3.40117 7.18651 3.96298 7.18651H4.6853C5.24711 7.18651 5.52802 6.92207 5.52802 6.39318V3.67318ZM21.7694 14.3265C21.7694 15.2332 21.5046 15.9358 20.9749 16.4345C20.4612 16.9181 19.7228 17.1598 18.7597 17.1598H16.5927C15.6296 17.1598 14.8832 16.9181 14.3535 16.4345C13.8399 15.9358 13.5831 15.2332 13.5831 14.3265V11.6065C13.5831 10.6998 13.8399 10.0047 14.3535 9.52118C14.8832 9.02251 15.6296 8.77318 16.5927 8.77318H18.7597C19.7228 8.77318 20.4612 9.02251 20.9749 9.52118C21.5046 10.0047 21.7694 10.6998 21.7694 11.6065V14.3265ZM18.8801 11.6065C18.8801 11.0776 18.5992 10.8132 18.0374 10.8132H17.3151C16.7533 10.8132 16.4724 11.0776 16.4724 11.6065V14.3265C16.4724 14.8554 16.7533 15.1198 17.3151 15.1198H18.0374C18.5992 15.1198 18.8801 14.8554 18.8801 14.3265V11.6065Z" fill="white"/>
</svg>
