<svg xmlns="http://www.w3.org/2000/svg" viewBox="0 0 144.95 168.58"><defs><style>.cls-1{fill:#f5f5f5;}.cls-2{fill:#c4c4c4;}.cls-3{fill:#e8e8e8;}.cls-4{fill:#d51635;}</style></defs><g id="Layer_2" data-name="Layer 2"><g id="Layer_1-2" data-name="Layer 1"><path class="cls-1" d="M0,168.58V6.74H128.92V168.58l-5-6.36-5.81,6.36-5-6.36-5.53,6.36-5.26-6.36-5.53,6.36-5.26-6.36-5.25,6.36-5.26-6.36-5.53,6.36-5.26-6.36-5.53,6.36-5.26-6.36L54,168.58l-5.26-6.36-5.53,6.36-5.26-6.36-5.53,6.36-5.26-6.36-5.53,6.36-5-6.36-5.81,6.36-5-6.36Z"/><rect class="cls-2" x="13" y="26.38" width="40.39" height="6.09" rx="3.04"/><path class="cls-2" d="M16.05,57.92H59.2a3,3,0,0,1,3,3h0a3,3,0,0,1-3,3H16.05A3,3,0,0,1,13,61h0A3,3,0,0,1,16.05,57.92Z"/><path class="cls-2" d="M16.05,97.76H59.2a3,3,0,0,1,3,3h0a3.06,3.06,0,0,1-3,3H16.05a3,3,0,0,1-3.05-3h0A3,3,0,0,1,16.05,97.76Z"/><path class="cls-2" d="M100.32,97.76h11.62a3,3,0,0,1,3,3h0a3,3,0,0,1-3,3H100.32a3,3,0,0,1-3-3h0A3,3,0,0,1,100.32,97.76Z"/><path class="cls-2" d="M100.32,107.72h11.62a3,3,0,0,1,3,3h0a3,3,0,0,1-3,3H100.32a3,3,0,0,1-3-3h0A3,3,0,0,1,100.32,107.72Z"/><path class="cls-2" d="M16.05,36.34H55.33a3,3,0,0,1,3,3h0a3,3,0,0,1-3,3H16.05a3,3,0,0,1-3.05-3h0A3,3,0,0,1,16.05,36.34Z"/><path class="cls-2" d="M16.05,67.88H45.92a3,3,0,0,1,3,3.05h0a3,3,0,0,1-3,3H16.05a3,3,0,0,1-3.05-3h0A3,3,0,0,1,16.05,67.88Z"/><path class="cls-2" d="M16.05,107.72H45.92a3,3,0,0,1,3,3h0a3.06,3.06,0,0,1-3,3H16.05a3,3,0,0,1-3.05-3h0A3,3,0,0,1,16.05,107.72Z"/><path class="cls-3" d="M21,128.42H64.74a8,8,0,0,1,8,8h0a8,8,0,0,1-8,8H21a8,8,0,0,1-8-8h0A8,8,0,0,1,21,128.42Z"/><path class="cls-3" d="M96.83,128.42h11.06a8,8,0,0,1,8,8h0a8,8,0,0,1-8,8H96.83a8,8,0,0,1-8-8h0A8,8,0,0,1,96.83,128.42Z"/><path class="cls-2" d="M16.05,77.84H52a3,3,0,0,1,3,3h0a3,3,0,0,1-3,3.05h-36A3,3,0,0,1,13,80.88h0A3,3,0,0,1,16.05,77.84Z"/><circle class="cls-4" cx="109.45" cy="35.49" r="35.49"/><path class="cls-1" d="M104.72,51.67h0a4.54,4.54,0,0,1-3.19-1.32l-9.86-9.87A4.5,4.5,0,1,1,98,34.12l6.69,6.68,20.16-20.16A4.5,4.5,0,1,1,131.24,27L107.9,50.35A4.53,4.53,0,0,1,104.72,51.67Z"/></g></g></svg>