<svg width="39" height="39" viewBox="0 0 39 39" fill="none" xmlns="http://www.w3.org/2000/svg">
<path d="M19.5002 3.44116C10.6312 3.44116 3.44141 10.6309 3.44141 19.5C3.44141 28.369 10.6312 35.5588 19.5002 35.5588C28.3693 35.5588 35.5591 28.369 35.5591 19.5C35.5496 10.6349 28.3654 3.45064 19.5002 3.44116ZM19.5002 33.2647C11.8982 33.2647 5.7355 27.102 5.7355 19.5C5.7355 11.8979 11.8982 5.73526 19.5002 5.73526C27.1023 5.73526 33.265 11.8979 33.265 19.5C33.2568 27.0987 27.0989 33.2565 19.5002 33.2647Z" fill="#D51635"/>
<path d="M19.4998 9.17651C18.8663 9.17651 18.3527 9.69007 18.3527 10.3236V18.353H10.3234C9.68983 18.353 9.17627 18.8666 9.17627 19.5001C9.17627 20.1337 9.68983 20.6471 10.3234 20.6471H19.4998C20.1333 20.6471 20.6469 20.1336 20.6469 19.5001V10.3236C20.6469 9.69007 20.1333 9.17651 19.4998 9.17651Z" fill="#D51635"/>
</svg>
