<svg width="23" height="22" viewBox="0 0 23 22" fill="none" xmlns="http://www.w3.org/2000/svg">
<path d="M10.8658 0.382375C10.9849 0.148231 11.2306 1.03749e-08 11.4996 1.03749e-08C11.7687 -4.52786e-05 12.0144 0.148185 12.1335 0.382329L14.8905 5.80328C15.1498 6.31301 15.6509 6.6664 16.2305 6.7481L22.3948 7.61778C22.661 7.65537 22.8822 7.83635 22.9654 8.08471C23.0485 8.33303 22.9792 8.60567 22.7866 8.78796L18.3264 13.008C17.907 13.4049 17.7156 13.9766 17.8146 14.5368L18.867 20.4944C18.9124 20.7518 18.8034 21.0119 18.5857 21.1652C18.3681 21.3188 18.0795 21.339 17.8414 21.2175L12.3278 18.4047C11.8094 18.1403 11.19 18.1403 10.6715 18.4048L5.15845 21.2174C4.92028 21.3389 4.63171 21.3186 4.41407 21.1652C4.19639 21.0117 4.08743 20.7515 4.13288 20.4942L5.18575 14.5371C5.28482 13.9767 5.0934 13.4049 4.6739 13.0079L0.213476 8.788C0.0208491 8.60571 -0.0485395 8.33308 0.0346148 8.08476C0.117769 7.83644 0.338954 7.65546 0.605216 7.61783L6.76927 6.74819C7.34893 6.6664 7.85005 6.31305 8.10931 5.80324L10.8658 0.382375Z" fill="#BDBDBD"/>
</svg>
