<svg width="26" height="33" viewBox="0 0 26 33" fill="none" xmlns="http://www.w3.org/2000/svg">
<path d="M2.89385 33H22.1862C23.7819 33 25.08 31.6989 25.08 30.0996V9.66797H18.3277C16.732 9.66797 15.4338 8.36692 15.4338 6.76758V0H2.89385C1.29812 0 0 1.30105 0 2.90039V30.0996C0 31.6989 1.29812 33 2.89385 33ZM6.75231 13.5996H18.3277C18.8609 13.5996 19.2923 14.032 19.2923 14.5664C19.2923 15.1008 18.8609 15.5332 18.3277 15.5332H6.75231C6.21913 15.5332 5.78769 15.1008 5.78769 14.5664C5.78769 14.032 6.21913 13.5996 6.75231 13.5996ZM6.75231 17.4668H18.3277C18.8609 17.4668 19.2923 17.8992 19.2923 18.4336C19.2923 18.968 18.8609 19.4004 18.3277 19.4004H6.75231C6.21913 19.4004 5.78769 18.968 5.78769 18.4336C5.78769 17.8992 6.21913 17.4668 6.75231 17.4668ZM6.75231 21.334H18.3277C18.8609 21.334 19.2923 21.7664 19.2923 22.3008C19.2923 22.8352 18.8609 23.2676 18.3277 23.2676H6.75231C6.21913 23.2676 5.78769 22.8352 5.78769 22.3008C5.78769 21.7664 6.21913 21.334 6.75231 21.334ZM6.75231 25.2012H14.4692C15.0024 25.2012 15.4338 25.6336 15.4338 26.168C15.4338 26.7023 15.0024 27.1348 14.4692 27.1348H6.75231C6.21913 27.1348 5.78769 26.7023 5.78769 26.168C5.78769 25.6336 6.21913 25.2012 6.75231 25.2012Z" fill="#E0E0E0"/>
<path d="M18.3298 7.73553H24.517L17.3652 0.567627V6.76873C17.3652 7.30214 17.7976 7.73553 18.3298 7.73553Z" fill="#E0E0E0"/>
</svg>
