<svg width="14" height="14" viewBox="0 0 14 14" fill="none" xmlns="http://www.w3.org/2000/svg">
<circle cx="7" cy="7" r="7" fill="#DDDDDD"/>
<path d="M6.99964 11.6336C7.44709 11.6336 7.80982 11.2708 7.80982 10.8234C7.80982 10.3759 7.44709 10.0132 6.99964 10.0132C6.55219 10.0132 6.18945 10.3759 6.18945 10.8234C6.18945 11.2708 6.55219 11.6336 6.99964 11.6336Z" fill="white"/>
<path d="M6.99982 2.72217C5.57026 2.72217 4.40723 3.88521 4.40723 5.31476C4.40723 5.67273 4.6974 5.96291 5.05537 5.96291C5.41335 5.96291 5.70352 5.67273 5.70352 5.31476C5.70352 4.59998 6.28504 4.01846 6.99982 4.01846C7.7146 4.01846 8.29612 4.59998 8.29612 5.31476C8.29612 6.02954 7.7146 6.61106 6.99982 6.61106C6.64185 6.61106 6.35167 6.90123 6.35167 7.2592V8.87958C6.35167 9.23755 6.64185 9.52772 6.99982 9.52772C7.35779 9.52772 7.64797 9.23755 7.64797 8.87958V7.82533C8.76492 7.53681 9.59241 6.52061 9.59241 5.31476C9.59241 3.88521 8.42937 2.72217 6.99982 2.72217Z" fill="white"/>
</svg>
