<svg width="21" height="22" viewBox="0 0 21 22" fill="none" xmlns="http://www.w3.org/2000/svg">
<path d="M4.70024 20.45C4.47016 20.45 4.24169 20.3788 4.0467 20.2391C3.68348 19.9781 3.5138 19.5296 3.61266 19.0968L4.96364 13.1973L0.381959 9.21421C0.0451737 8.92275 -0.0834839 8.46119 0.0547871 8.03887C0.193058 7.61733 0.569257 7.31889 1.01467 7.27807L7.0768 6.73249L9.47355 1.17233C9.65028 0.763817 10.0528 0.5 10.4999 0.5C10.9471 0.5 11.3496 0.763817 11.5263 1.17137L13.9231 6.73249L19.9842 7.27807C20.4306 7.31794 20.8068 7.61733 20.9451 8.03887C21.0833 8.4604 20.9555 8.92275 20.6187 9.21421L16.037 13.1966L17.388 19.0958C17.487 19.5296 17.3172 19.9781 16.9541 20.2383C16.5919 20.4984 16.1088 20.5185 15.7273 20.2912L10.4999 17.1945L5.27255 20.2929C5.09583 20.3969 4.89892 20.45 4.70024 20.45ZM10.4999 15.8604C10.6986 15.8604 10.8954 15.9133 11.0722 16.0174L16.0056 18.9424L14.7306 13.3743C14.6396 12.978 14.7753 12.5642 15.0842 12.2961L19.4103 8.53505L13.6867 8.01981C13.2746 7.98248 12.9202 7.72565 12.7592 7.34923L10.4999 2.10212L8.23793 7.35002C8.07867 7.72391 7.72426 7.98073 7.31313 8.01806L1.58875 8.5333L5.91472 12.2944C6.22459 12.5633 6.36013 12.9763 6.26833 13.3735L4.99425 18.9414L9.92762 16.0174C10.1043 15.9133 10.3013 15.8604 10.4999 15.8604ZM7.0305 6.84002C7.0305 6.84002 7.0305 6.84097 7.02954 6.84176L7.0305 6.84002ZM13.9676 6.83747L13.9686 6.83922C13.9686 6.83827 13.9686 6.83827 13.9676 6.83747Z" fill="#D51635"/>
</svg>
