<svg width="22" height="22" viewBox="0 0 22 22" fill="none" xmlns="http://www.w3.org/2000/svg">
<path d="M5.93506 6.57422H7.1682V7.80765H5.93506V6.57422Z" fill="#D51635"/>
<path d="M19.7274 7.0005C20.4921 6.76911 21.0506 6.05816 21.0506 5.21893C21.0506 4.19272 20.2157 3.35777 19.1894 3.35777H19.1128C18.8646 3.35777 18.6626 3.15581 18.6626 2.90756C18.6626 2.65931 18.8646 2.45736 19.1128 2.45736V1.22393C18.1844 1.22393 17.4292 1.9792 17.4292 2.90756C17.4292 3.83593 18.1844 4.5912 19.1128 4.5912H19.1894C19.5355 4.5912 19.8171 4.87279 19.8171 5.21893C19.8171 5.56507 19.5356 5.84667 19.1894 5.84667H18.7661C17.3798 4.47789 15.4766 3.63151 13.3792 3.63151H9.95552C9.66065 1.86005 8.1173 0.505371 6.26345 0.505371H5.34125V2.75166C5.34125 4.76585 3.7026 6.40451 1.6884 6.40451H0V11.8633H0.616716C2.10831 11.8633 3.32184 13.0768 3.32184 14.5684V21.4986H8.30129V18.9742H12.1198C12.9167 20.4745 14.4957 21.4986 16.3096 21.4986C18.9238 21.4986 21.0506 19.3718 21.0506 16.7576C21.0506 15.8908 20.8166 15.0777 20.4087 14.3779C20.8344 13.4077 21.0506 12.3746 21.0506 11.3028C21.0506 9.70953 20.5621 8.22826 19.7274 7.0005ZM7.06785 17.7407V20.2178H4.55527V14.5684C4.55527 12.6064 3.11335 10.9749 1.23343 10.6781V7.63794H1.68836C4.38267 7.63794 6.57465 5.44597 6.57465 2.75166V1.758C7.81198 1.91181 8.77283 2.96993 8.77283 4.24822V4.86494H13.3792C16.9291 4.86494 19.8171 7.75298 19.8171 11.3028C19.8171 11.9786 19.7149 12.6358 19.5129 13.2658C18.6686 12.4906 17.5434 12.0166 16.3096 12.0166C13.6954 12.0166 11.5686 14.1434 11.5686 16.7576C11.5686 17.0946 11.6042 17.4235 11.6714 17.7407H7.06785ZM16.3096 20.2651C14.3756 20.2651 12.8021 18.6916 12.8021 16.7576C12.8021 14.8235 14.3756 13.25 16.3096 13.25C18.2437 13.25 19.8171 14.8235 19.8171 16.7576C19.8171 18.6916 18.2437 20.2651 16.3096 20.2651Z" fill="#D51635"/>
<path d="M15.1376 7.74341L15.686 6.63859C14.9644 6.28048 14.1883 6.09888 13.379 6.09888H11.1855V7.33231H13.379C13.9963 7.33231 14.588 7.47062 15.1376 7.74341Z" fill="#D51635"/>
<path d="M16.9423 16.9583V14.5366H15.7089V16.9583L14.9181 16.1676L14.0459 17.0397L16.3256 19.3194L18.6052 17.0397L17.733 16.1676L16.9423 16.9583Z" fill="#D51635"/>
</svg>
