<svg width="24" height="22" viewBox="0 0 24 22" fill="none" xmlns="http://www.w3.org/2000/svg">
<path d="M4.23383 11.5694H6.45796C6.76066 11.5694 7.05373 11.6107 7.33265 11.6868C7.88284 10.6052 9.00613 9.86206 10.3005 9.86206H14.2319C15.5263 9.86206 16.6496 10.6052 17.1998 11.6868C17.4787 11.6107 17.7718 11.5694 18.0745 11.5694H20.2986C22.1339 11.5694 23.627 13.0625 23.627 14.8977V18.4532C23.627 19.5543 22.7311 20.4502 21.6299 20.4502H2.90249C1.80135 20.4502 0.905491 19.5543 0.905491 18.4532V14.8977C0.905491 13.0625 2.39858 11.5694 4.23383 11.5694ZM17.5603 13.1905V19.1189H21.6299C21.997 19.1189 22.2956 18.8203 22.2956 18.4532V14.8977C22.2956 13.7966 21.3998 12.9007 20.2986 12.9007H18.0745C17.8938 12.9007 17.7188 12.9253 17.5522 12.9705C17.557 13.0433 17.5603 13.1166 17.5603 13.1905ZM8.3035 19.1189H16.2289V13.1904C16.2289 12.0893 15.3331 11.1934 14.2319 11.1934H10.3005C9.19936 11.1934 8.3035 12.0893 8.3035 13.1904V19.1189ZM2.23683 18.4532C2.23683 18.8203 2.53544 19.1189 2.90249 19.1189H6.97216V13.1904C6.97216 13.1165 6.97545 13.0432 6.98024 12.9705C6.81365 12.9253 6.63867 12.9007 6.45796 12.9007H4.23383C3.13268 12.9007 2.23683 13.7966 2.23683 14.8977V18.4532Z" fill="#D51635"/>
<path d="M19.1859 5.2832C20.8168 5.2832 22.1436 6.60997 22.1436 8.24081C22.1436 9.87165 20.8168 11.1984 19.1859 11.1984C17.5552 11.1984 16.2283 9.87165 16.2283 8.24081C16.2283 6.60997 17.5551 5.2832 19.1859 5.2832ZM19.186 9.86708C20.0827 9.86708 20.8123 9.13755 20.8123 8.24081C20.8123 7.34407 20.0827 6.61454 19.186 6.61454C18.2892 6.61454 17.5597 7.34407 17.5597 8.24081C17.5597 9.13755 18.2892 9.86708 19.186 9.86708Z" fill="#D51635"/>
<path d="M12.2665 1.60986C14.4452 1.60986 16.2178 3.3824 16.2178 5.56118C16.2178 7.73995 14.4452 9.51249 12.2665 9.51249C10.0877 9.51249 8.31514 7.73995 8.31514 5.56118C8.31514 3.38245 10.0877 1.60986 12.2665 1.60986ZM12.2665 8.18116C13.7111 8.18116 14.8864 7.00586 14.8864 5.56118C14.8864 4.11655 13.7111 2.9412 12.2665 2.9412C10.8218 2.9412 9.64648 4.1165 9.64648 5.56118C9.64648 7.00586 10.8218 8.18116 12.2665 8.18116Z" fill="#D51635"/>
<path d="M5.3461 5.2832C6.9769 5.2832 8.30371 6.60997 8.30371 8.24081C8.30367 9.87165 6.9769 11.1984 5.3461 11.1984C3.71526 11.1984 2.3885 9.87165 2.3885 8.24081C2.3885 6.60997 3.71526 5.2832 5.3461 5.2832ZM5.3461 9.86708C6.2428 9.86708 6.97238 9.13755 6.97238 8.24081C6.97233 7.34407 6.2428 6.61454 5.3461 6.61454C4.44936 6.61454 3.71983 7.34407 3.71983 8.24081C3.71983 9.13755 4.44936 9.86708 5.3461 9.86708Z" fill="#D51635"/>
</svg>
