<svg width="25" height="23" viewBox="0 0 25 23" fill="none" xmlns="http://www.w3.org/2000/svg">
<mask id="path-1-outside-1" maskUnits="userSpaceOnUse" x="-0.0498047" y="-0.391357" width="25" height="24" fill="black">
<rect fill="white" x="-0.0498047" y="-0.391357" width="25" height="24"/>
<path d="M22.6586 16.0607V6.65988C22.6582 6.26751 22.5022 5.89131 22.2247 5.61387C21.9473 5.33642 21.5711 5.18038 21.1787 5.18001H11.5967V2.66149C11.5967 2.57175 11.5655 2.48481 11.5084 2.41558L10.1341 0.749293C10.0975 0.704852 10.0514 0.669167 9.99916 0.644853C9.94694 0.620539 9.88995 0.608212 9.83236 0.608773C9.77477 0.609334 9.71803 0.62277 9.6663 0.648097C9.61458 0.673424 9.56917 0.710001 9.53341 0.755148L8.42543 2.15165L7.34627 0.758661C7.31104 0.713079 7.26606 0.675957 7.21462 0.650014C7.16318 0.624072 7.10659 0.609966 7.04899 0.608731C6.99139 0.607496 6.93425 0.619163 6.88175 0.642877C6.82925 0.666591 6.78271 0.70175 6.74556 0.74578L5.33829 2.41207C5.27931 2.4818 5.24695 2.57016 5.24695 2.66149V5.18001H3.89284C3.50049 5.18044 3.12433 5.3365 2.84689 5.61393C2.56946 5.89137 2.41341 6.26753 2.41297 6.65988V16.0595C2.02363 16.0644 1.65188 16.2224 1.37813 16.4993C1.10439 16.7762 0.950657 17.1498 0.950195 17.5391V22.1136C0.950195 22.2161 0.990907 22.3144 1.06338 22.3869C1.13584 22.4594 1.23413 22.5001 1.33662 22.5001H23.6904C23.7929 22.5001 23.8912 22.4594 23.9637 22.3869C24.0361 22.3144 24.0769 22.2161 24.0769 22.1136V17.5391C24.0764 17.1575 23.9286 16.7907 23.6644 16.5153C23.4002 16.2399 23.0399 16.077 22.6586 16.0607ZM6.01979 2.80294L7.02683 1.60855L8.11513 3.01372C8.15103 3.06002 8.19699 3.09755 8.24953 3.12348C8.30207 3.14941 8.35982 3.16305 8.41841 3.16337H8.42075C8.47921 3.16377 8.537 3.15092 8.58977 3.12577C8.64255 3.10062 8.68893 3.06383 8.72544 3.01816L9.84278 1.60972L10.8238 2.80036V7.96832C10.8238 8.00468 10.8093 8.03953 10.7835 8.06521C10.7578 8.0909 10.7229 8.10533 10.6866 8.10533H6.15703C6.12067 8.10533 6.0858 8.0909 6.06007 8.06521C6.03434 8.03953 6.01986 8.00468 6.01979 7.96832V2.80294ZM3.18605 6.65988C3.18623 6.47242 3.26078 6.29269 3.39334 6.16014C3.52589 6.02759 3.70562 5.95304 3.89308 5.95285H5.24719V7.96832C5.2475 8.20958 5.34349 8.44085 5.5141 8.61142C5.68471 8.78199 5.91601 8.87792 6.15727 8.87817H10.6866C10.9278 8.87792 11.1591 8.78199 11.3297 8.61142C11.5004 8.44085 11.5963 8.20958 11.5967 7.96832V5.95285H21.1787C21.3662 5.95304 21.5459 6.02759 21.6784 6.16014C21.811 6.29269 21.8855 6.47242 21.8857 6.65988V16.059H3.18581L3.18605 6.65988ZM23.3033 21.7272H1.72304V17.5391C1.72328 17.3517 1.79785 17.172 1.93038 17.0394C2.06291 16.9068 2.24261 16.8322 2.43007 16.8319H22.5958C22.7833 16.8321 22.963 16.9067 23.0956 17.0393C23.2281 17.1719 23.3027 17.3517 23.3028 17.5391L23.3033 21.7272Z"/>
<path d="M14.7296 18.9389H10.2956C10.1932 18.9389 10.0949 18.9796 10.0224 19.052C9.94993 19.1245 9.90922 19.2228 9.90922 19.3253C9.90922 19.4278 9.94993 19.526 10.0224 19.5985C10.0949 19.671 10.1932 19.7117 10.2956 19.7117H14.7296C14.8321 19.7117 14.9304 19.671 15.0029 19.5985C15.0753 19.526 15.1161 19.4278 15.1161 19.3253C15.1161 19.2228 15.0753 19.1245 15.0029 19.052C14.9304 18.9796 14.8321 18.9389 14.7296 18.9389Z"/>
<path d="M7.47826 10.8899H5.64991C5.54742 10.8899 5.44913 10.9306 5.37666 11.0031C5.3042 11.0756 5.26348 11.1738 5.26348 11.2763C5.26348 11.3788 5.3042 11.4771 5.37666 11.5496C5.44913 11.622 5.54742 11.6627 5.64991 11.6627H7.47826C7.58074 11.6627 7.67903 11.622 7.7515 11.5496C7.82397 11.4771 7.86468 11.3788 7.86468 11.2763C7.86468 11.1738 7.82397 11.0756 7.7515 11.0031C7.67903 10.9306 7.58074 10.8899 7.47826 10.8899Z"/>
<path d="M7.47826 13.1827H5.64991C5.54742 13.1827 5.44913 13.2234 5.37666 13.2959C5.3042 13.3683 5.26348 13.4666 5.26348 13.5691C5.26348 13.6716 5.3042 13.7699 5.37666 13.8424C5.44913 13.9148 5.54742 13.9555 5.64991 13.9555H7.47826C7.58074 13.9555 7.67903 13.9148 7.7515 13.8424C7.82397 13.7699 7.86468 13.6716 7.86468 13.5691C7.86468 13.4666 7.82397 13.3683 7.7515 13.2959C7.67903 13.2234 7.58074 13.1827 7.47826 13.1827Z"/>
<path d="M11.2061 10.8899H9.37938C9.2769 10.8899 9.17861 10.9306 9.10614 11.0031C9.03367 11.0756 8.99296 11.1738 8.99296 11.2763C8.99296 11.3788 9.03367 11.4771 9.10614 11.5496C9.17861 11.622 9.2769 11.6627 9.37938 11.6627H11.2061C11.3086 11.6627 11.4069 11.622 11.4793 11.5496C11.5518 11.4771 11.5925 11.3788 11.5925 11.2763C11.5925 11.1738 11.5518 11.0756 11.4793 11.0031C11.4069 10.9306 11.3086 10.8899 11.2061 10.8899Z"/>
<path d="M11.2061 13.1827H9.37938C9.2769 13.1827 9.17861 13.2234 9.10614 13.2959C9.03367 13.3683 8.99296 13.4666 8.99296 13.5691C8.99296 13.6716 9.03367 13.7699 9.10614 13.8424C9.17861 13.9148 9.2769 13.9555 9.37938 13.9555H11.2061C11.3086 13.9555 11.4069 13.9148 11.4793 13.8424C11.5518 13.7699 11.5925 13.6716 11.5925 13.5691C11.5925 13.4666 11.5518 13.3683 11.4793 13.2959C11.4069 13.2234 11.3086 13.1827 11.2061 13.1827Z"/>
<path d="M19.5075 13.1827H13.7657C13.6632 13.1827 13.565 13.2234 13.4925 13.2959C13.42 13.3683 13.3793 13.4666 13.3793 13.5691C13.3793 13.6716 13.42 13.7699 13.4925 13.8424C13.565 13.9148 13.6632 13.9555 13.7657 13.9555H19.5075C19.6099 13.9555 19.7082 13.9148 19.7807 13.8424C19.8532 13.7699 19.8939 13.6716 19.8939 13.5691C19.8939 13.4666 19.8532 13.3683 19.7807 13.2959C19.7082 13.2234 19.6099 13.1827 19.5075 13.1827Z"/>
<path d="M14.0157 11.4609H19.2382C19.4119 11.4609 19.5786 11.392 19.7015 11.2692C19.8244 11.1465 19.8937 10.98 19.894 10.8063V8.3707C19.894 8.19678 19.8249 8.02999 19.7019 7.90702C19.5789 7.78404 19.4121 7.71495 19.2382 7.71495H14.0157C13.8418 7.71495 13.675 7.78404 13.552 7.90702C13.4291 8.02999 13.36 8.19678 13.36 8.3707V10.8063C13.3603 10.98 13.4295 11.1465 13.5524 11.2692C13.6754 11.392 13.842 11.4609 14.0157 11.4609ZM14.1328 8.48967H19.1207V10.688H14.134L14.1328 8.48967Z"/>
</mask>
<path d="M22.6586 16.0607V6.65988C22.6582 6.26751 22.5022 5.89131 22.2247 5.61387C21.9473 5.33642 21.5711 5.18038 21.1787 5.18001H11.5967V2.66149C11.5967 2.57175 11.5655 2.48481 11.5084 2.41558L10.1341 0.749293C10.0975 0.704852 10.0514 0.669167 9.99916 0.644853C9.94694 0.620539 9.88995 0.608212 9.83236 0.608773C9.77477 0.609334 9.71803 0.62277 9.6663 0.648097C9.61458 0.673424 9.56917 0.710001 9.53341 0.755148L8.42543 2.15165L7.34627 0.758661C7.31104 0.713079 7.26606 0.675957 7.21462 0.650014C7.16318 0.624072 7.10659 0.609966 7.04899 0.608731C6.99139 0.607496 6.93425 0.619163 6.88175 0.642877C6.82925 0.666591 6.78271 0.70175 6.74556 0.74578L5.33829 2.41207C5.27931 2.4818 5.24695 2.57016 5.24695 2.66149V5.18001H3.89284C3.50049 5.18044 3.12433 5.3365 2.84689 5.61393C2.56946 5.89137 2.41341 6.26753 2.41297 6.65988V16.0595C2.02363 16.0644 1.65188 16.2224 1.37813 16.4993C1.10439 16.7762 0.950657 17.1498 0.950195 17.5391V22.1136C0.950195 22.2161 0.990907 22.3144 1.06338 22.3869C1.13584 22.4594 1.23413 22.5001 1.33662 22.5001H23.6904C23.7929 22.5001 23.8912 22.4594 23.9637 22.3869C24.0361 22.3144 24.0769 22.2161 24.0769 22.1136V17.5391C24.0764 17.1575 23.9286 16.7907 23.6644 16.5153C23.4002 16.2399 23.0399 16.077 22.6586 16.0607ZM6.01979 2.80294L7.02683 1.60855L8.11513 3.01372C8.15103 3.06002 8.19699 3.09755 8.24953 3.12348C8.30207 3.14941 8.35982 3.16305 8.41841 3.16337H8.42075C8.47921 3.16377 8.537 3.15092 8.58977 3.12577C8.64255 3.10062 8.68893 3.06383 8.72544 3.01816L9.84278 1.60972L10.8238 2.80036V7.96832C10.8238 8.00468 10.8093 8.03953 10.7835 8.06521C10.7578 8.0909 10.7229 8.10533 10.6866 8.10533H6.15703C6.12067 8.10533 6.0858 8.0909 6.06007 8.06521C6.03434 8.03953 6.01986 8.00468 6.01979 7.96832V2.80294ZM3.18605 6.65988C3.18623 6.47242 3.26078 6.29269 3.39334 6.16014C3.52589 6.02759 3.70562 5.95304 3.89308 5.95285H5.24719V7.96832C5.2475 8.20958 5.34349 8.44085 5.5141 8.61142C5.68471 8.78199 5.91601 8.87792 6.15727 8.87817H10.6866C10.9278 8.87792 11.1591 8.78199 11.3297 8.61142C11.5004 8.44085 11.5963 8.20958 11.5967 7.96832V5.95285H21.1787C21.3662 5.95304 21.5459 6.02759 21.6784 6.16014C21.811 6.29269 21.8855 6.47242 21.8857 6.65988V16.059H3.18581L3.18605 6.65988ZM23.3033 21.7272H1.72304V17.5391C1.72328 17.3517 1.79785 17.172 1.93038 17.0394C2.06291 16.9068 2.24261 16.8322 2.43007 16.8319H22.5958C22.7833 16.8321 22.963 16.9067 23.0956 17.0393C23.2281 17.1719 23.3027 17.3517 23.3028 17.5391L23.3033 21.7272Z" fill="#D51635"/>
<path d="M14.7296 18.9389H10.2956C10.1932 18.9389 10.0949 18.9796 10.0224 19.052C9.94993 19.1245 9.90922 19.2228 9.90922 19.3253C9.90922 19.4278 9.94993 19.526 10.0224 19.5985C10.0949 19.671 10.1932 19.7117 10.2956 19.7117H14.7296C14.8321 19.7117 14.9304 19.671 15.0029 19.5985C15.0753 19.526 15.1161 19.4278 15.1161 19.3253C15.1161 19.2228 15.0753 19.1245 15.0029 19.052C14.9304 18.9796 14.8321 18.9389 14.7296 18.9389Z" fill="#D51635"/>
<path d="M7.47826 10.8899H5.64991C5.54742 10.8899 5.44913 10.9306 5.37666 11.0031C5.3042 11.0756 5.26348 11.1738 5.26348 11.2763C5.26348 11.3788 5.3042 11.4771 5.37666 11.5496C5.44913 11.622 5.54742 11.6627 5.64991 11.6627H7.47826C7.58074 11.6627 7.67903 11.622 7.7515 11.5496C7.82397 11.4771 7.86468 11.3788 7.86468 11.2763C7.86468 11.1738 7.82397 11.0756 7.7515 11.0031C7.67903 10.9306 7.58074 10.8899 7.47826 10.8899Z" fill="#D51635"/>
<path d="M7.47826 13.1827H5.64991C5.54742 13.1827 5.44913 13.2234 5.37666 13.2959C5.3042 13.3683 5.26348 13.4666 5.26348 13.5691C5.26348 13.6716 5.3042 13.7699 5.37666 13.8424C5.44913 13.9148 5.54742 13.9555 5.64991 13.9555H7.47826C7.58074 13.9555 7.67903 13.9148 7.7515 13.8424C7.82397 13.7699 7.86468 13.6716 7.86468 13.5691C7.86468 13.4666 7.82397 13.3683 7.7515 13.2959C7.67903 13.2234 7.58074 13.1827 7.47826 13.1827Z" fill="#D51635"/>
<path d="M11.2061 10.8899H9.37938C9.2769 10.8899 9.17861 10.9306 9.10614 11.0031C9.03367 11.0756 8.99296 11.1738 8.99296 11.2763C8.99296 11.3788 9.03367 11.4771 9.10614 11.5496C9.17861 11.622 9.2769 11.6627 9.37938 11.6627H11.2061C11.3086 11.6627 11.4069 11.622 11.4793 11.5496C11.5518 11.4771 11.5925 11.3788 11.5925 11.2763C11.5925 11.1738 11.5518 11.0756 11.4793 11.0031C11.4069 10.9306 11.3086 10.8899 11.2061 10.8899Z" fill="#D51635"/>
<path d="M11.2061 13.1827H9.37938C9.2769 13.1827 9.17861 13.2234 9.10614 13.2959C9.03367 13.3683 8.99296 13.4666 8.99296 13.5691C8.99296 13.6716 9.03367 13.7699 9.10614 13.8424C9.17861 13.9148 9.2769 13.9555 9.37938 13.9555H11.2061C11.3086 13.9555 11.4069 13.9148 11.4793 13.8424C11.5518 13.7699 11.5925 13.6716 11.5925 13.5691C11.5925 13.4666 11.5518 13.3683 11.4793 13.2959C11.4069 13.2234 11.3086 13.1827 11.2061 13.1827Z" fill="#D51635"/>
<path d="M19.5075 13.1827H13.7657C13.6632 13.1827 13.565 13.2234 13.4925 13.2959C13.42 13.3683 13.3793 13.4666 13.3793 13.5691C13.3793 13.6716 13.42 13.7699 13.4925 13.8424C13.565 13.9148 13.6632 13.9555 13.7657 13.9555H19.5075C19.6099 13.9555 19.7082 13.9148 19.7807 13.8424C19.8532 13.7699 19.8939 13.6716 19.8939 13.5691C19.8939 13.4666 19.8532 13.3683 19.7807 13.2959C19.7082 13.2234 19.6099 13.1827 19.5075 13.1827Z" fill="#D51635"/>
<path d="M14.0157 11.4609H19.2382C19.4119 11.4609 19.5786 11.392 19.7015 11.2692C19.8244 11.1465 19.8937 10.98 19.894 10.8063V8.3707C19.894 8.19678 19.8249 8.02999 19.7019 7.90702C19.5789 7.78404 19.4121 7.71495 19.2382 7.71495H14.0157C13.8418 7.71495 13.675 7.78404 13.552 7.90702C13.4291 8.02999 13.36 8.19678 13.36 8.3707V10.8063C13.3603 10.98 13.4295 11.1465 13.5524 11.2692C13.6754 11.392 13.842 11.4609 14.0157 11.4609ZM14.1328 8.48967H19.1207V10.688H14.134L14.1328 8.48967Z" fill="#D51635"/>
<path d="M22.6586 16.0607V6.65988C22.6582 6.26751 22.5022 5.89131 22.2247 5.61387C21.9473 5.33642 21.5711 5.18038 21.1787 5.18001H11.5967V2.66149C11.5967 2.57175 11.5655 2.48481 11.5084 2.41558L10.1341 0.749293C10.0975 0.704852 10.0514 0.669167 9.99916 0.644853C9.94694 0.620539 9.88995 0.608212 9.83236 0.608773C9.77477 0.609334 9.71803 0.62277 9.6663 0.648097C9.61458 0.673424 9.56917 0.710001 9.53341 0.755148L8.42543 2.15165L7.34627 0.758661C7.31104 0.713079 7.26606 0.675957 7.21462 0.650014C7.16318 0.624072 7.10659 0.609966 7.04899 0.608731C6.99139 0.607496 6.93425 0.619163 6.88175 0.642877C6.82925 0.666591 6.78271 0.70175 6.74556 0.74578L5.33829 2.41207C5.27931 2.4818 5.24695 2.57016 5.24695 2.66149V5.18001H3.89284C3.50049 5.18044 3.12433 5.3365 2.84689 5.61393C2.56946 5.89137 2.41341 6.26753 2.41297 6.65988V16.0595C2.02363 16.0644 1.65188 16.2224 1.37813 16.4993C1.10439 16.7762 0.950657 17.1498 0.950195 17.5391V22.1136C0.950195 22.2161 0.990907 22.3144 1.06338 22.3869C1.13584 22.4594 1.23413 22.5001 1.33662 22.5001H23.6904C23.7929 22.5001 23.8912 22.4594 23.9637 22.3869C24.0361 22.3144 24.0769 22.2161 24.0769 22.1136V17.5391C24.0764 17.1575 23.9286 16.7907 23.6644 16.5153C23.4002 16.2399 23.0399 16.077 22.6586 16.0607ZM6.01979 2.80294L7.02683 1.60855L8.11513 3.01372C8.15103 3.06002 8.19699 3.09755 8.24953 3.12348C8.30207 3.14941 8.35982 3.16305 8.41841 3.16337H8.42075C8.47921 3.16377 8.537 3.15092 8.58977 3.12577C8.64255 3.10062 8.68893 3.06383 8.72544 3.01816L9.84278 1.60972L10.8238 2.80036V7.96832C10.8238 8.00468 10.8093 8.03953 10.7835 8.06521C10.7578 8.0909 10.7229 8.10533 10.6866 8.10533H6.15703C6.12067 8.10533 6.0858 8.0909 6.06007 8.06521C6.03434 8.03953 6.01986 8.00468 6.01979 7.96832V2.80294ZM3.18605 6.65988C3.18623 6.47242 3.26078 6.29269 3.39334 6.16014C3.52589 6.02759 3.70562 5.95304 3.89308 5.95285H5.24719V7.96832C5.2475 8.20958 5.34349 8.44085 5.5141 8.61142C5.68471 8.78199 5.91601 8.87792 6.15727 8.87817H10.6866C10.9278 8.87792 11.1591 8.78199 11.3297 8.61142C11.5004 8.44085 11.5963 8.20958 11.5967 7.96832V5.95285H21.1787C21.3662 5.95304 21.5459 6.02759 21.6784 6.16014C21.811 6.29269 21.8855 6.47242 21.8857 6.65988V16.059H3.18581L3.18605 6.65988ZM23.3033 21.7272H1.72304V17.5391C1.72328 17.3517 1.79785 17.172 1.93038 17.0394C2.06291 16.9068 2.24261 16.8322 2.43007 16.8319H22.5958C22.7833 16.8321 22.963 16.9067 23.0956 17.0393C23.2281 17.1719 23.3027 17.3517 23.3028 17.5391L23.3033 21.7272Z" stroke="#D51635" stroke-width="0.4" mask="url(#path-1-outside-1)"/>
<path d="M14.7296 18.9389H10.2956C10.1932 18.9389 10.0949 18.9796 10.0224 19.052C9.94993 19.1245 9.90922 19.2228 9.90922 19.3253C9.90922 19.4278 9.94993 19.526 10.0224 19.5985C10.0949 19.671 10.1932 19.7117 10.2956 19.7117H14.7296C14.8321 19.7117 14.9304 19.671 15.0029 19.5985C15.0753 19.526 15.1161 19.4278 15.1161 19.3253C15.1161 19.2228 15.0753 19.1245 15.0029 19.052C14.9304 18.9796 14.8321 18.9389 14.7296 18.9389Z" stroke="#D51635" stroke-width="0.4" mask="url(#path-1-outside-1)"/>
<path d="M7.47826 10.8899H5.64991C5.54742 10.8899 5.44913 10.9306 5.37666 11.0031C5.3042 11.0756 5.26348 11.1738 5.26348 11.2763C5.26348 11.3788 5.3042 11.4771 5.37666 11.5496C5.44913 11.622 5.54742 11.6627 5.64991 11.6627H7.47826C7.58074 11.6627 7.67903 11.622 7.7515 11.5496C7.82397 11.4771 7.86468 11.3788 7.86468 11.2763C7.86468 11.1738 7.82397 11.0756 7.7515 11.0031C7.67903 10.9306 7.58074 10.8899 7.47826 10.8899Z" stroke="#D51635" stroke-width="0.4" mask="url(#path-1-outside-1)"/>
<path d="M7.47826 13.1827H5.64991C5.54742 13.1827 5.44913 13.2234 5.37666 13.2959C5.3042 13.3683 5.26348 13.4666 5.26348 13.5691C5.26348 13.6716 5.3042 13.7699 5.37666 13.8424C5.44913 13.9148 5.54742 13.9555 5.64991 13.9555H7.47826C7.58074 13.9555 7.67903 13.9148 7.7515 13.8424C7.82397 13.7699 7.86468 13.6716 7.86468 13.5691C7.86468 13.4666 7.82397 13.3683 7.7515 13.2959C7.67903 13.2234 7.58074 13.1827 7.47826 13.1827Z" stroke="#D51635" stroke-width="0.4" mask="url(#path-1-outside-1)"/>
<path d="M11.2061 10.8899H9.37938C9.2769 10.8899 9.17861 10.9306 9.10614 11.0031C9.03367 11.0756 8.99296 11.1738 8.99296 11.2763C8.99296 11.3788 9.03367 11.4771 9.10614 11.5496C9.17861 11.622 9.2769 11.6627 9.37938 11.6627H11.2061C11.3086 11.6627 11.4069 11.622 11.4793 11.5496C11.5518 11.4771 11.5925 11.3788 11.5925 11.2763C11.5925 11.1738 11.5518 11.0756 11.4793 11.0031C11.4069 10.9306 11.3086 10.8899 11.2061 10.8899Z" stroke="#D51635" stroke-width="0.4" mask="url(#path-1-outside-1)"/>
<path d="M11.2061 13.1827H9.37938C9.2769 13.1827 9.17861 13.2234 9.10614 13.2959C9.03367 13.3683 8.99296 13.4666 8.99296 13.5691C8.99296 13.6716 9.03367 13.7699 9.10614 13.8424C9.17861 13.9148 9.2769 13.9555 9.37938 13.9555H11.2061C11.3086 13.9555 11.4069 13.9148 11.4793 13.8424C11.5518 13.7699 11.5925 13.6716 11.5925 13.5691C11.5925 13.4666 11.5518 13.3683 11.4793 13.2959C11.4069 13.2234 11.3086 13.1827 11.2061 13.1827Z" stroke="#D51635" stroke-width="0.4" mask="url(#path-1-outside-1)"/>
<path d="M19.5075 13.1827H13.7657C13.6632 13.1827 13.565 13.2234 13.4925 13.2959C13.42 13.3683 13.3793 13.4666 13.3793 13.5691C13.3793 13.6716 13.42 13.7699 13.4925 13.8424C13.565 13.9148 13.6632 13.9555 13.7657 13.9555H19.5075C19.6099 13.9555 19.7082 13.9148 19.7807 13.8424C19.8532 13.7699 19.8939 13.6716 19.8939 13.5691C19.8939 13.4666 19.8532 13.3683 19.7807 13.2959C19.7082 13.2234 19.6099 13.1827 19.5075 13.1827Z" stroke="#D51635" stroke-width="0.4" mask="url(#path-1-outside-1)"/>
<path d="M14.0157 11.4609H19.2382C19.4119 11.4609 19.5786 11.392 19.7015 11.2692C19.8244 11.1465 19.8937 10.98 19.894 10.8063V8.3707C19.894 8.19678 19.8249 8.02999 19.7019 7.90702C19.5789 7.78404 19.4121 7.71495 19.2382 7.71495H14.0157C13.8418 7.71495 13.675 7.78404 13.552 7.90702C13.4291 8.02999 13.36 8.19678 13.36 8.3707V10.8063C13.3603 10.98 13.4295 11.1465 13.5524 11.2692C13.6754 11.392 13.842 11.4609 14.0157 11.4609ZM14.1328 8.48967H19.1207V10.688H14.134L14.1328 8.48967Z" stroke="#D51635" stroke-width="0.4" mask="url(#path-1-outside-1)"/>
</svg>
