<svg width="23" height="22" viewBox="0 0 23 22" fill="none" xmlns="http://www.w3.org/2000/svg">
<path d="M20.3762 18.35H16.2739C16.0379 18.35 15.8465 18.157 15.8465 17.919V12.8336H15.0773C14.9215 12.8336 14.7781 12.7481 14.703 12.6104C14.6278 12.4727 14.6329 12.3047 14.7163 12.172L17.964 7.00036C18.0424 6.87559 18.1786 6.8 18.325 6.8C18.4715 6.8 18.6076 6.87564 18.686 7.00036L21.9337 12.172C22.0171 12.3047 22.0221 12.4727 21.9471 12.6104C21.872 12.748 21.7285 12.8336 21.5727 12.8336H20.8035V17.919C20.8035 18.1571 20.6122 18.35 20.3762 18.35ZM16.7012 17.4881H19.9489V12.4026C19.9489 12.1646 20.1402 11.9716 20.3762 11.9716H20.7962L18.325 8.03645L15.8538 11.9716H16.2739C16.5098 11.9716 16.7012 12.1646 16.7012 12.4026V17.4881Z" fill="#D51635"/>
<path d="M10.0623 20.45H3.48771C3.2424 20.45 3.04348 20.2289 3.04348 19.9562V10.7713H1.44425C1.28202 10.7713 1.13267 10.673 1.05467 10.5148C0.976703 10.3567 0.982478 10.1638 1.06977 10.0118L6.40052 0.728141C6.48212 0.586022 6.62334 0.5 6.775 0.5C6.92666 0.5 7.06788 0.586022 7.14949 0.728141L12.4802 10.0118C12.5675 10.1638 12.5733 10.3566 12.4953 10.5148C12.4173 10.673 12.268 10.7713 12.1057 10.7713H10.5065V17.8504C10.5065 18.1231 10.3076 18.3442 10.0623 18.3442C9.81699 18.3442 9.61806 18.1231 9.61806 17.8504V10.2775C9.61806 10.0048 9.81699 9.78366 10.0623 9.78366H11.2952L6.775 1.91161L2.25479 9.78366H3.48771C3.73301 9.78366 3.93194 10.0048 3.93194 10.2775V19.4624H9.61806V17.339C9.61806 17.0663 9.81699 16.8452 10.0623 16.8452C10.3076 16.8452 10.5065 17.0663 10.5065 17.339V19.9562C10.5065 20.2289 10.3076 20.45 10.0623 20.45Z" fill="#D51635"/>
<path d="M20.3762 18.35H16.2739C16.0379 18.35 15.8465 18.157 15.8465 17.919V12.8336H15.0773C14.9215 12.8336 14.7781 12.7481 14.703 12.6104C14.6278 12.4727 14.6329 12.3047 14.7163 12.172L17.964 7.00036C18.0424 6.87559 18.1786 6.8 18.325 6.8C18.4715 6.8 18.6076 6.87564 18.686 7.00036L21.9337 12.172C22.0171 12.3047 22.0221 12.4727 21.9471 12.6104C21.872 12.748 21.7285 12.8336 21.5727 12.8336H20.8035V17.919C20.8035 18.1571 20.6122 18.35 20.3762 18.35ZM16.7012 17.4881H19.9489V12.4026C19.9489 12.1646 20.1402 11.9716 20.3762 11.9716H20.7962L18.325 8.03645L15.8538 11.9716H16.2739C16.5098 11.9716 16.7012 12.1646 16.7012 12.4026V17.4881Z" stroke="#D51635" stroke-width="0.25"/>
<path d="M10.0623 20.45H3.48771C3.2424 20.45 3.04348 20.2289 3.04348 19.9562V10.7713H1.44425C1.28202 10.7713 1.13267 10.673 1.05467 10.5148C0.976703 10.3567 0.982478 10.1638 1.06977 10.0118L6.40052 0.728141C6.48212 0.586022 6.62334 0.5 6.775 0.5C6.92666 0.5 7.06788 0.586022 7.14949 0.728141L12.4802 10.0118C12.5675 10.1638 12.5733 10.3566 12.4953 10.5148C12.4173 10.673 12.268 10.7713 12.1057 10.7713H10.5065V17.8504C10.5065 18.1231 10.3076 18.3442 10.0623 18.3442C9.81699 18.3442 9.61806 18.1231 9.61806 17.8504V10.2775C9.61806 10.0048 9.81699 9.78366 10.0623 9.78366H11.2952L6.775 1.91161L2.25479 9.78366H3.48771C3.73301 9.78366 3.93194 10.0048 3.93194 10.2775V19.4624H9.61806V17.339C9.61806 17.0663 9.81699 16.8452 10.0623 16.8452C10.3076 16.8452 10.5065 17.0663 10.5065 17.339V19.9562C10.5065 20.2289 10.3076 20.45 10.0623 20.45Z" stroke="#D51635" stroke-width="0.25"/>
</svg>
