<svg width="22" height="22" viewBox="0 0 22 22" fill="none" xmlns="http://www.w3.org/2000/svg">
<path d="M21.3791 12.8614H17.3228V8.84652C17.3228 7.38334 16.4248 6.03089 14.7941 5.03825C11.6798 3.14258 6.83785 3.13584 3.69925 4.8529C2.14439 5.70353 1.11202 6.89348 0.867646 8.20293C0.784202 8.64726 0.807754 11.158 0.807754 15.138C0.807754 16.3213 1.65292 17.4111 3.11253 18.2068C3.93596 18.6555 4.84665 18.9367 5.8193 19.0425C5.86909 19.0479 21.3781 19.0701 21.3781 19.0701C21.7243 19.0701 22 18.79 22 18.4493V13.4824C22 13.1394 21.722 12.8614 21.3791 12.8614ZM16.081 12.8614H14.4331C15.038 12.5343 15.6054 12.1337 16.081 11.6485V12.8614ZM2.08814 8.43145C2.46493 6.41281 5.56193 4.83159 9.08592 4.83159C11.0079 4.83159 12.8058 5.28167 14.1484 6.09894C16.7279 7.66911 16.7221 10.0274 14.1484 11.5941C12.1318 12.8216 9.2894 13.1107 6.93259 12.6629C4.08183 12.1221 2.04944 10.5527 2.04944 8.84652C2.04948 8.70777 2.06244 8.56833 2.08814 8.43145ZM20.7582 17.8274L17.985 17.8232V16.7936C17.985 16.4507 17.7071 16.1727 17.3642 16.1727C17.0213 16.1727 16.7433 16.4507 16.7433 16.7936V17.8212L14.6737 17.818V16.7936C14.6737 16.4507 14.3958 16.1727 14.0529 16.1727C13.71 16.1727 13.432 16.4507 13.432 16.7936V17.816L11.3625 17.8128V16.7936C11.3625 16.4507 11.0845 16.1727 10.7416 16.1727C10.3987 16.1727 10.1207 16.4507 10.1207 16.7936V17.8109L8.05118 17.8077V16.7936C8.05118 16.4507 7.7732 16.1727 7.43032 16.1727C7.08744 16.1727 6.80945 16.4507 6.80945 16.7936V17.8057L5.92133 17.8044C5.12293 17.7135 4.37794 17.4821 3.70674 17.1164C2.66472 16.5484 2.04948 15.8457 2.04948 15.1379V11.6476C2.21377 11.8172 2.72954 12.2136 2.74597 12.2261C4.46329 13.5417 6.89422 14.1032 9.08596 14.1032H20.7582V17.8274Z" fill="#D51635"/>
<path d="M8.17716 11.0367C10.1784 11.4276 12.3552 10.4602 12.3552 8.84658C12.3552 7.57003 10.9189 6.57007 9.08532 6.57007C7.41453 6.57007 6.05074 7.40132 5.84275 8.54554C5.82462 8.64438 5.81543 8.74566 5.81543 8.84658C5.81543 9.88143 6.76465 10.7617 8.17716 11.0367ZM7.06428 8.76868C7.14826 8.30655 7.98043 7.8118 9.08532 7.8118C10.2461 7.8118 11.1135 8.35812 11.1135 8.84658C11.1135 9.47328 9.77833 10.0842 8.41483 9.81798C7.64086 9.66723 7.05716 9.24964 7.05716 8.84658C7.05716 8.82029 7.05944 8.79517 7.06428 8.76868Z" fill="#D51635"/>
</svg>
