<svg width="16" height="16" viewBox="0 0 16 16" fill="none" xmlns="http://www.w3.org/2000/svg">
<path d="M14.3018 13.3525H4.94002C4.55418 13.3525 4.24146 13.0398 4.24146 12.654C4.24146 12.2681 4.55418 11.9554 4.94002 11.9554H14.3015C14.6874 11.9554 15.0001 12.2681 15.0001 12.654C15.0001 13.0398 14.6876 13.3525 14.3018 13.3525Z" fill="#4F4F4F"/>
<path d="M14.3018 8.9676H4.94002C4.55418 8.9676 4.24146 8.65488 4.24146 8.26903C4.24146 7.88319 4.55418 7.57047 4.94002 7.57047H14.3015C14.6874 7.57047 15.0001 7.88319 15.0001 8.26903C15.0003 8.65488 14.6876 8.9676 14.3018 8.9676Z" fill="#4F4F4F"/>
<path d="M14.3018 4.58272H4.94002C4.55418 4.58272 4.24146 4.26999 4.24146 3.88415C4.24146 3.49831 4.55418 3.18559 4.94002 3.18559H14.3015C14.6874 3.18559 15.0001 3.49831 15.0001 3.88415C15.0001 4.26999 14.6876 4.58272 14.3018 4.58272Z" fill="#4F4F4F"/>
<path d="M1.93818 4.87635C2.45632 4.87635 2.87635 4.45632 2.87635 3.93818C2.87635 3.42004 2.45632 3 1.93818 3C1.42004 3 1 3.42004 1 3.93818C1 4.45632 1.42004 4.87635 1.93818 4.87635Z" fill="#4F4F4F"/>
<path d="M1.93818 9.20723C2.45632 9.20723 2.87635 8.7872 2.87635 8.26906C2.87635 7.75092 2.45632 7.33088 1.93818 7.33088C1.42004 7.33088 1 7.75092 1 8.26906C1 8.7872 1.42004 9.20723 1.93818 9.20723Z" fill="#4F4F4F"/>
<path d="M1.93818 13.5381C2.45632 13.5381 2.87635 13.1181 2.87635 12.5999C2.87635 12.0818 2.45632 11.6618 1.93818 11.6618C1.42004 11.6618 1 12.0818 1 12.5999C1 13.1181 1.42004 13.5381 1.93818 13.5381Z" fill="#4F4F4F"/>
</svg>
