<svg width="18" height="18" viewBox="0 0 18 18" fill="none" xmlns="http://www.w3.org/2000/svg">
<path d="M15.8423 9C15.8423 10.897 15.0661 12.6157 13.8145 13.8566C13.5413 13.0321 13.0579 12.2856 12.402 11.6921C12.0273 11.353 11.6083 11.075 11.1593 10.8636C12.0229 10.2093 12.5824 9.17256 12.5824 8.0072C12.5824 6.03179 10.9754 4.42493 9 4.42493C7.0246 4.42493 5.41774 6.03179 5.41774 8.0072C5.41774 9.17256 5.97721 10.2093 6.84068 10.8636C6.39183 11.0749 5.97271 11.3528 5.59801 11.692C4.94223 12.2855 4.45875 13.032 4.18545 13.8565C2.9339 12.6156 2.1577 10.8969 2.1577 9C2.1577 5.22725 5.22725 2.1577 9 2.1577C12.7727 2.1577 15.8423 5.22725 15.8423 9ZM14.6922 3.30778C13.172 1.78754 11.1499 0.95 9 0.95C6.84995 0.95 4.82803 1.78754 3.30778 3.30778C1.78754 4.82803 0.95 6.84995 0.95 9C0.95 11.1499 1.78754 13.172 3.30778 14.6922C4.82803 16.2125 6.84995 17.05 9 17.05C11.1499 17.05 13.172 16.2125 14.6922 14.6922C16.2125 13.172 17.05 11.1499 17.05 9C17.05 6.84995 16.2125 4.82803 14.6922 3.30778ZM5.2105 14.6941C5.56475 12.9016 7.13617 11.5895 9 11.5895C10.8639 11.5895 12.4353 12.9016 12.7895 14.6941C11.7038 15.419 10.4006 15.8423 9 15.8423C7.59939 15.8423 6.29616 15.419 5.2105 14.6941ZM6.62544 8.0072C6.62544 6.69788 7.69079 5.63263 9 5.63263C10.3092 5.63263 11.3746 6.69799 11.3746 8.0072C11.3746 9.3164 10.3092 10.3818 9 10.3818C7.6908 10.3818 6.62544 9.3164 6.62544 8.0072Z" fill="#4F4F4F" stroke="#4F4F4F" stroke-width="0.1"/>
</svg>
