<svg xmlns="http://www.w3.org/2000/svg" viewBox="0 0 528.93 529"><defs><style>.cls-1{fill:#d51635;}</style></defs><g id="Layer_2" data-name="Layer 2"><g id="Layer_1-2" data-name="Layer 1"><path class="cls-1" d="M512.71,225,304.09,16.42a56,56,0,0,0-79.26,0L16.52,224.73l-.32.32a56,56,0,0,0,37.14,95.41c.45,0,.91.07,1.37.08v144.4A64.12,64.12,0,0,0,118.77,529h81.55a24,24,0,0,0,24-24V384.77a16.14,16.14,0,0,1,16.12-16.12h48.1a16.14,16.14,0,0,1,16.12,16.12V505a24,24,0,0,0,24,24h81.55a64.12,64.12,0,0,0,64.06-64.06V320.53a56,56,0,0,0,38.5-95.5Zm-224.2,95.68h-48.1a64.13,64.13,0,0,0-64.06,64.06v96.29H118.77a16.14,16.14,0,0,1-16.12-16.12V296.58a24,24,0,0,0-24-24h-22q-.4,0-.81,0a8,8,0,0,1-5.57-2.35,8.13,8.13,0,0,1-1.76-8.83h.42L51,258,258.74,50.31a8.09,8.09,0,0,1,11.45,0L478.58,258.7l.15.15a8.13,8.13,0,0,1-.08,11.38,7.94,7.94,0,0,1-5.73,2.38H450.24a24,24,0,0,0-24,24V464.94a16.14,16.14,0,0,1-16.12,16.12H352.57V384.77A64.12,64.12,0,0,0,288.51,320.71Z"/></g></g></svg>