<svg width="16" height="16" viewBox="0 0 16 16" fill="none" xmlns="http://www.w3.org/2000/svg">
<path d="M15.4839 1H0.516129C0.379243 1 0.247964 1.05438 0.151171 1.15117C0.0543777 1.24796 0 1.37924 0 1.51613L0 4.35484C0 4.49172 0.0543777 4.623 0.151171 4.7198C0.247964 4.81659 0.379243 4.87097 0.516129 4.87097H0.774194V15.1935C0.774194 15.3304 0.828571 15.4617 0.925364 15.5585C1.02216 15.6553 1.15344 15.7097 1.29032 15.7097H14.7097C14.8466 15.7097 14.9778 15.6553 15.0746 15.5585C15.1714 15.4617 15.2258 15.3304 15.2258 15.1935V4.87097H15.4839C15.6208 4.87097 15.752 4.81659 15.8488 4.7198C15.9456 4.623 16 4.49172 16 4.35484V1.51613C16 1.37924 15.9456 1.24796 15.8488 1.15117C15.752 1.05438 15.6208 1 15.4839 1V1ZM14.9677 3.83871H10.3226V2.03226H14.9677V3.83871ZM9.29032 2.03226V7.07226L8.28645 6.48903C8.20799 6.44373 8.11899 6.41988 8.02839 6.41988C7.93779 6.41988 7.84878 6.44373 7.77032 6.48903L6.70968 7.08516V2.03226H9.29032ZM1.03226 2.03226H5.67742V3.83871H1.03226V2.03226ZM14.1935 14.6774H1.80645V4.87097H5.67742V7.96774C5.67706 8.05852 5.70064 8.14778 5.7458 8.22653C5.79095 8.30527 5.85607 8.37072 5.93459 8.41626C6.01312 8.46181 6.10226 8.48583 6.19303 8.48592C6.28381 8.48601 6.373 8.46216 6.45161 8.41677L8.02839 7.52903L9.54839 8.41419C9.62681 8.45947 9.71576 8.48332 9.80632 8.48334C9.89687 8.48337 9.98584 8.45956 10.0643 8.41433C10.1427 8.36909 10.2079 8.30401 10.2532 8.22562C10.2986 8.14723 10.3225 8.0583 10.3226 7.96774V4.87097H14.1935V14.6774Z" fill="#4F4F4F"/>
<path d="M6.0645 11.0645H2.96773C2.83084 11.0645 2.69956 11.1189 2.60277 11.2157C2.50598 11.3125 2.4516 11.4438 2.4516 11.5806C2.4516 11.7175 2.50598 11.8488 2.60277 11.9456C2.69956 12.0424 2.83084 12.0968 2.96773 12.0968H6.0645C6.20139 12.0968 6.33267 12.0424 6.42946 11.9456C6.52625 11.8488 6.58063 11.7175 6.58063 11.5806C6.58063 11.4438 6.52625 11.3125 6.42946 11.2157C6.33267 11.1189 6.20139 11.0645 6.0645 11.0645Z" fill="#4F4F4F"/>
<path d="M4.90321 12.871H2.96773C2.83084 12.871 2.69956 12.9253 2.60277 13.0221C2.50598 13.1189 2.4516 13.2502 2.4516 13.3871C2.4516 13.524 2.50598 13.6553 2.60277 13.7521C2.69956 13.8489 2.83084 13.9032 2.96773 13.9032H4.90321C5.0401 13.9032 5.17138 13.8489 5.26817 13.7521C5.36496 13.6553 5.41934 13.524 5.41934 13.3871C5.41934 13.2502 5.36496 13.1189 5.26817 13.0221C5.17138 12.9253 5.0401 12.871 4.90321 12.871Z" fill="#4F4F4F"/>
</svg>
