<?xml version="1.0" encoding="utf-8"?><svg viewBox="0 0 528.93 529" xmlns="http://www.w3.org/2000/svg" xmlns:xlink="http://www.w3.org/1999/xlink"><style>:root>svg{display:none}:root>svg:target{display:block}</style><svg fill="none" viewBox="0 0 9 16" id="arrow-left" xmlns="http://www.w3.org/2000/svg"><path d="M8 1L2 8l6 7" stroke="#000" stroke-width="2"/></svg><svg fill="none" viewBox="0 0 9 16" id="arrow-right" xmlns="http://www.w3.org/2000/svg"><path d="M1 1l6 7-6 7" stroke="#000" stroke-width="2"/></svg><svg fill="none" viewBox="0 0 14 14" id="icon-add" xmlns="http://www.w3.org/2000/svg"><path d="M7.873 6.127V0H6.127v6.127H0v1.746h6.127V14h1.746V7.873H14V6.127H7.873z" fill="#D51635"/></svg><svg fill="none" viewBox="0 0 39 39" id="icon-all-orders-01" xmlns="http://www.w3.org/2000/svg"><path d="M19.5 3.441c-8.869 0-16.059 7.19-16.059 16.059s7.19 16.059 16.06 16.059c8.868 0 16.058-7.19 16.058-16.059-.01-8.865-7.194-16.05-16.059-16.059zm0 29.824c-7.602 0-13.764-6.163-13.764-13.765S11.898 5.735 19.5 5.735c7.602 0 13.765 6.163 13.765 13.765-.008 7.599-6.166 13.757-13.765 13.765z" fill="#D51635"/><path d="M19.5 9.177c-.634 0-1.147.513-1.147 1.147v8.029h-8.03a1.147 1.147 0 100 2.294H19.5c.633 0 1.147-.513 1.147-1.147v-9.176c0-.634-.514-1.147-1.147-1.147z" fill="#D51635"/></svg><svg fill="none" viewBox="0 0 39 39" id="icon-all-orders-02" xmlns="http://www.w3.org/2000/svg"><path d="M33.589 8.03H5.385a3.094 3.094 0 00-3.091 3.09v16.76a3.094 3.094 0 003.09 3.09H33.59a3.094 3.094 0 003.09-3.09V11.12a3.094 3.094 0 00-3.09-3.09zM4.308 23.037h30.358v1.924H4.308v-1.924zm1.077-12.995h28.204c.594 0 1.077.483 1.077 1.077v9.904H4.308V11.12c0-.594.483-1.077 1.077-1.077zm28.204 18.914H5.385a1.078 1.078 0 01-1.077-1.077v-.904h30.358v.904c0 .594-.483 1.077-1.077 1.077z" fill="#D51635"/><path d="M8.059 14.277h6.686a1.007 1.007 0 100-2.013H8.059a1.007 1.007 0 100 2.014zM8.059 18.344h6.686a1.007 1.007 0 100-2.014H8.059a1.007 1.007 0 000 2.014zM27.6 18.184a2.884 2.884 0 002.881-2.88 2.884 2.884 0 00-2.88-2.882 2.884 2.884 0 00-2.881 2.881 2.884 2.884 0 002.88 2.881zm0-3.748a.868.868 0 010 1.734.868.868 0 010-1.734z" fill="#D51635"/></svg><svg fill="none" viewBox="0 0 39 39" id="icon-all-orders-03" xmlns="http://www.w3.org/2000/svg"><path d="M32.34 23.557V11.356a3.33 3.33 0 00-3.327-3.327H4.473a3.33 3.33 0 00-3.326 3.326v16.41a3.33 3.33 0 003.326 3.326h18.998l-.002.148c0 4.28 3.482 7.76 7.762 7.76 4.28 0 7.76-3.48 7.76-7.76 0-3.903-2.895-7.142-6.652-7.682zM4.472 10.247h24.54a1.11 1.11 0 011.109 1.108v.666H3.364v-.666a1.11 1.11 0 011.11-1.108zm-1.109 3.991h26.758v2.218H3.364v-2.218zm1.11 14.636a1.11 1.11 0 01-1.11-1.11v-9.09h26.758v4.883a7.784 7.784 0 00-6.284 5.317H4.473zm26.757 7.908a5.55 5.55 0 01-5.544-5.543 5.55 5.55 0 015.544-5.544 5.55 5.55 0 015.543 5.544 5.55 5.55 0 01-5.543 5.543z" fill="#D51635"/><path d="M32.849 29.198l-1.877 1.877-.584-.583a1.109 1.109 0 10-1.568 1.568l1.368 1.367a1.105 1.105 0 001.568 0l2.66-2.66a1.109 1.109 0 10-1.567-1.569zM6.69 23.108h2.773a1.109 1.109 0 000-2.217H6.69a1.109 1.109 0 000 2.217zM12.974 24.439H6.69a1.109 1.109 0 000 2.217h6.283a1.109 1.109 0 000-2.217z" fill="#D51635"/></svg><svg fill="none" viewBox="0 0 39 39" id="icon-all-orders-04" xmlns="http://www.w3.org/2000/svg"><path d="M7.182 17.289L5.13 19.34l6.596 6.595L26.382 11.28 24.33 9.227 11.726 21.832 7.182 17.29zM23.45 30.333H2.931V9.813h14.657v-2.93H2.931A2.94 2.94 0 000 9.812v20.52a2.94 2.94 0 002.931 2.932h20.52a2.94 2.94 0 002.931-2.932V18.608h-2.931v11.725z" fill="#D51635"/></svg><svg fill="none" viewBox="0 0 7 14" id="icon-arrow-sort" xmlns="http://www.w3.org/2000/svg"><path d="M3.5.5l3.031 5.25H.47L3.5.5zM3.5 13.5l3.031-5.25H.47L3.5 13.5z" fill="#E0E0E0"/></svg><svg fill="none" viewBox="0 0 32 30" id="icon-basket" xmlns="http://www.w3.org/2000/svg"><path d="M30.33 8.912c2.453 0 1.479 2.536 1.479 2.536l-3.287 9.715s-.27 1.443-1.66 1.443H10.274c-1.653 0-1.725-1.812-1.725-1.812L6.47 5.265 1.13 3.91a1.476 1.476 0 01-.918-.681 1.5 1.5 0 01-.167-1.137 1.503 1.503 0 011.827-1.077l6.33 1.606a1.497 1.497 0 011.12 1.26l.95 7.694.996 7.9h15.008l.782-2.617-12.583-.004a1.227 1.227 0 01-.875-.36 1.246 1.246 0 01-.367-.878 1.24 1.24 0 011.244-1.238l13.317-.003.83-2.797H15.525a1.322 1.322 0 01-.944-.386 1.344 1.344 0 01-.396-.947c0-.737.6-1.334 1.34-1.334l14.806.001zM23.618 24.65a2.666 2.666 0 012.674 2.657c0 1.47-1.199 2.66-2.674 2.66a2.638 2.638 0 01-1.883-.771 2.676 2.676 0 01-.79-1.889 2.664 2.664 0 012.673-2.657zm-11.666 0a2.665 2.665 0 012.674 2.657c0 1.47-1.197 2.66-2.672 2.66a2.636 2.636 0 01-1.884-.77 2.676 2.676 0 01-.79-1.89 2.665 2.665 0 012.674-2.657h-.002z" fill="#fff"/></svg><svg fill="none" viewBox="0 0 6 8" id="icon-breadcrumb" xmlns="http://www.w3.org/2000/svg"><path d="M1 .5L4.938 4 1 7.5" stroke="#898989"/></svg><svg fill="none" viewBox="0 0 8 13" id="icon-breadcrumb-mobile" xmlns="http://www.w3.org/2000/svg"><path d="M0 6.5c0 .233.096.466.288.644l6.034 5.59a1.039 1.039 0 001.39 0 .864.864 0 000-1.288L2.372 6.5l5.34-4.946a.864.864 0 000-1.287 1.039 1.039 0 00-1.39 0L.288 5.857A.875.875 0 000 6.5z" fill="#D8D8D8"/></svg><svg fill="none" viewBox="0 0 18 19" id="icon-btn-arrow" xmlns="http://www.w3.org/2000/svg"><path d="M8.924.283L7.349 1.857l6.215 6.215H.02v2.226h13.543l-6.215 6.214 1.575 1.575 8.902-8.902L8.924.283z" fill="#fff"/></svg><svg fill="none" viewBox="0 0 20 20" id="icon-catalog" xmlns="http://www.w3.org/2000/svg"><path d="M19.002 17.262H5.628a.998.998 0 110-1.996h13.374a.998.998 0 010 1.996zM19.002 10.998H5.628a.998.998 0 110-1.996h13.374a.998.998 0 010 1.996zM19.002 4.734H5.628a.998.998 0 110-1.996h13.374a.998.998 0 010 1.996zM1.34 5.153a1.34 1.34 0 100-2.68 1.34 1.34 0 000 2.68zM1.34 11.34a1.34 1.34 0 100-2.68 1.34 1.34 0 000 2.68zM1.34 17.527a1.34 1.34 0 100-2.68 1.34 1.34 0 000 2.68z" fill="#fff"/></svg><svg fill="none" viewBox="0 0 12 10" id="icon-checked" xmlns="http://www.w3.org/2000/svg"><path d="M.938 5l3.375 3.375 6.75-6.75" stroke="#fff" stroke-width="2"/></svg><svg fill="none" viewBox="0 0 20 20" id="icon-close" xmlns="http://www.w3.org/2000/svg"><path d="M0 2.357L2.357 0 10 7.643 17.643 0 20 2.357 12.357 10 20 17.643 17.643 20 10 12.357 2.357 20 0 17.643 7.643 10 0 2.357z" fill="#000"/></svg><svg fill="none" viewBox="0 0 11 13" id="icon-delete" xmlns="http://www.w3.org/2000/svg"><path d="M9.942 1.625H7.615v-.406C7.615.547 7.046 0 6.346 0H4.654c-.7 0-1.27.547-1.27 1.219v.406H1.059C.474 1.625 0 2.081 0 2.641v1.421c0 .225.19.407.423.407h.231l.366 7.37C1.052 12.49 1.609 13 2.288 13h6.424c.68 0 1.236-.51 1.268-1.16l.366-7.371h.23A.415.415 0 0011 4.062V2.641c0-.56-.475-1.016-1.058-1.016zm-5.711-.406c0-.224.19-.407.423-.407h1.692c.233 0 .423.183.423.407v.406H4.231v-.406zM.846 2.64c0-.112.095-.204.212-.204h8.884c.117 0 .212.092.212.204v1.015H.846V2.641zm8.289 9.16a.415.415 0 01-.423.386H2.288a.415.415 0 01-.423-.386l-.364-7.332H9.5L9.135 11.8z" fill="#D51635"/><path d="M5.5 11.375a.415.415 0 00.423-.406V5.688A.415.415 0 005.5 5.28a.415.415 0 00-.423.407v5.28c0 .225.19.407.423.407zM7.615 11.375a.415.415 0 00.423-.406V5.688a.415.415 0 00-.423-.407.415.415 0 00-.423.407v5.28c0 .225.19.407.423.407zM3.385 11.375a.415.415 0 00.423-.406V5.688a.415.415 0 00-.423-.407.415.415 0 00-.423.407v5.28c0 .225.189.407.423.407z" fill="#D51635"/></svg><svg fill="none" viewBox="0 0 10 10" id="icon-delete-white" xmlns="http://www.w3.org/2000/svg"><path d="M0 1.178L1.178 0 5 3.822 8.822 0 10 1.178 6.178 5 10 8.822 8.822 10 5 6.178 1.178 10 0 8.822 3.822 5 0 1.178z" fill="#fff"/></svg><svg fill="none" viewBox="0 0 26 33" id="icon-documents-gray" xmlns="http://www.w3.org/2000/svg"><path d="M2.894 33h19.292a2.9 2.9 0 002.894-2.9V9.668h-6.752a2.9 2.9 0 01-2.894-2.9V0H2.894A2.9 2.9 0 000 2.9v27.2A2.9 2.9 0 002.894 33zm3.858-19.4h11.576c.533 0 .964.432.964.966a.965.965 0 01-.964.967H6.752a.965.965 0 01-.964-.967c0-.534.431-.966.964-.966zm0 3.867h11.576c.533 0 .964.432.964.967a.965.965 0 01-.964.966H6.752a.965.965 0 01-.964-.966c0-.535.431-.967.964-.967zm0 3.867h11.576c.533 0 .964.432.964.967a.965.965 0 01-.964.967H6.752a.965.965 0 01-.964-.967c0-.535.431-.967.964-.967zm0 3.867h7.717c.533 0 .965.433.965.967a.965.965 0 01-.965.967H6.752a.965.965 0 01-.964-.967c0-.534.431-.967.964-.967z" fill="#E0E0E0"/><path d="M18.33 7.736h6.187L17.365.568v6.2c0 .534.433.968.965.968z" fill="#E0E0E0"/></svg><svg fill="none" viewBox="0 0 14 10" id="icon-email" xmlns="http://www.w3.org/2000/svg"><path d="M9.28 4.884L14 7.868V1.775l-4.72 3.11zM0 1.775v6.093l4.72-2.984L0 1.774zM13.125 0H.875a.864.864 0 00-.849.745L7 5.339 13.974.745A.864.864 0 0013.125 0zM8.48 5.413l-1.239.815a.437.437 0 01-.481 0l-1.238-.816L.028 8.886a.863.863 0 00.847.739h12.25c.435 0 .78-.323.847-.739L8.48 5.413z" fill="#fff"/></svg><svg fill="none" viewBox="0 0 14 10" id="icon-email-gray" xmlns="http://www.w3.org/2000/svg"><path d="M9.28 4.884L14 7.868V1.775l-4.72 3.11zM0 1.775v6.093l4.72-2.984L0 1.774zM13.125 0H.875a.864.864 0 00-.849.745L7 5.339 13.974.745A.864.864 0 0013.125 0zM8.479 5.413l-1.238.815a.437.437 0 01-.482 0l-1.238-.816L.028 8.886a.863.863 0 00.847.739h12.25c.435 0 .78-.323.847-.739L8.48 5.413z" fill="#BDBDBD"/></svg><svg fill="none" viewBox="0 0 17 16" id="icon-expected" xmlns="http://www.w3.org/2000/svg"><path d="M9.206 7.694l2.041 1.53-2.041-1.53zm0 0V4.56a.705.705 0 10-1.412 0v3.486c0 .222.104.431.283.564 0 0 0 0 0 0l2.323 1.743s0 0 0 0a.703.703 0 00.989-.142.705.705 0 00-.142-.987L9.206 7.694z" fill="#2D9CDB" stroke="#2D9CDB" stroke-width=".25"/><path d="M8.5.375C4.295.375.875 3.795.875 8s3.42 7.625 7.625 7.625 7.625-3.42 7.625-7.625S12.705.375 8.5.375zm0 13.838A6.22 6.22 0 012.287 8 6.22 6.22 0 018.5 1.787 6.22 6.22 0 0114.713 8 6.22 6.22 0 018.5 14.213z" fill="#2D9CDB" stroke="#2D9CDB" stroke-width=".25"/></svg><svg fill="none" viewBox="0 0 21 11" id="icon-eye-gray" xmlns="http://www.w3.org/2000/svg"><path d="M20.85 5.108c-.179-.2-4.486-4.897-9.88-4.897-5.394 0-9.7 4.697-9.88 4.897-.2.223-.2.56 0 .784.18.2 4.486 4.897 9.88 4.897 5.394 0 9.701-4.697 9.88-4.897.2-.223.2-.56 0-.784zm-9.88 4.506A4.119 4.119 0 016.856 5.5a4.119 4.119 0 014.114-4.114A4.119 4.119 0 0115.084 5.5a4.119 4.119 0 01-4.114 4.114z" fill="#BDBDBD"/><path d="M11.558 4.325c0-.591.294-1.111.74-1.431a2.9 2.9 0 00-1.327-.332A2.942 2.942 0 008.032 5.5a2.942 2.942 0 002.939 2.939c1.45 0 2.65-1.06 2.888-2.444a1.753 1.753 0 01-2.3-1.67z" fill="#BDBDBD"/></svg><svg viewBox="0 0 124.59 127.5" id="icon-filter" xmlns="http://www.w3.org/2000/svg"><g data-name="Layer 2"><path d="M123.59 4.89a9 9 0 00-8-4.89H9a9 9 0 00-7.3 14.31l39 54.93.13.18a7.09 7.09 0 011.4 4.23v44.81a9 9 0 002.61 6.39 9 9 0 009.81 2l21.78-8.3a8.77 8.77 0 006-8.47V73.66a7.18 7.18 0 011.4-4.24l39.1-55.09a9 9 0 00.66-9.44zM52.18 61.13L18.77 14.07h87.05l-33.39 47a21.12 21.12 0 00-4.12 12.55v32.91l-12 4.58V73.65a21 21 0 00-4.13-12.52z" data-name="Layer 1"/></g></svg><svg fill="none" viewBox="0 0 18 12" id="icon-hamburger" xmlns="http://www.w3.org/2000/svg"><path fill="#fff" d="M0 0h18v2H0zM0 5h18v2H0zM0 10h18v2H0z"/></svg><svg fill="none" viewBox="0 0 14 10" id="icon-in-stock" xmlns="http://www.w3.org/2000/svg"><path opacity=".9" d="M0 5.425L4.794 10 14 1.241 12.678 0 4.794 7.5l-3.49-3.325L0 5.425z" fill="#27AE60"/></svg><svg fill="none" viewBox="0 0 3 15" id="icon-more" xmlns="http://www.w3.org/2000/svg"><path d="M0 1.5a1.5 1.5 0 103 0 1.5 1.5 0 00-3 0zM0 7.5a1.5 1.5 0 103 0 1.5 1.5 0 00-3 0zM0 13.5a1.5 1.5 0 103 0 1.5 1.5 0 00-3 0z" fill="#4F4F4F"/></svg><svg fill="none" viewBox="0 0 13 12" id="icon-not-delivered" xmlns="http://www.w3.org/2000/svg"><path d="M12.088 1.688l.089-.088-.089-.088-1.1-1.1L10.9.323l-.088.089L6.5 4.723 2.188.412 2.1.323l-.088.089-1.1 1.1-.089.088.089.088L5.223 6 .912 10.312l-.089.088.089.088 1.1 1.1.088.089.088-.089L6.5 7.277l4.312 4.311.088.089.088-.089 1.1-1.1.089-.088-.089-.088L7.777 6l4.311-4.312z" fill="#828282" stroke="#828282" stroke-width=".25"/></svg><svg viewBox="0 0 144.95 168.58" id="icon-order-successful" xmlns="http://www.w3.org/2000/svg"><defs><style>.bbcls-1{fill:#f5f5f5}.bbcls-2{fill:#c4c4c4}.bbcls-3{fill:#e8e8e8}.bbcls-4{fill:#d51635}</style></defs><g id="bbLayer_2" data-name="Layer 2"><g id="bbLayer_1-2" data-name="Layer 1"><path class="bbcls-1" d="M0 168.58V6.74h128.92v161.84l-5-6.36-5.81 6.36-5-6.36-5.53 6.36-5.26-6.36-5.53 6.36-5.26-6.36-5.25 6.36-5.26-6.36-5.53 6.36-5.26-6.36-5.53 6.36-5.26-6.36-5.44 6.36-5.26-6.36-5.53 6.36-5.26-6.36-5.53 6.36-5.26-6.36-5.53 6.36-5-6.36-5.81 6.36-5-6.36z"/><rect class="bbcls-2" x="13" y="26.38" width="40.39" height="6.09" rx="3.04"/><path class="bbcls-2" d="M16.05 57.92H59.2a3 3 0 013 3 3 3 0 01-3 3H16.05A3 3 0 0113 61a3 3 0 013.05-3.08zM16.05 97.76H59.2a3 3 0 013 3 3.06 3.06 0 01-3 3H16.05a3 3 0 01-3.05-3 3 3 0 013.05-3zM100.32 97.76h11.62a3 3 0 013 3 3 3 0 01-3 3h-11.62a3 3 0 01-3-3 3 3 0 013-3zM100.32 107.72h11.62a3 3 0 013 3 3 3 0 01-3 3h-11.62a3 3 0 01-3-3 3 3 0 013-3zM16.05 36.34h39.28a3 3 0 013 3 3 3 0 01-3 3H16.05a3 3 0 01-3.05-3 3 3 0 013.05-3zM16.05 67.88h29.87a3 3 0 013 3.05 3 3 0 01-3 3H16.05a3 3 0 01-3.05-3 3 3 0 013.05-3.05zM16.05 107.72h29.87a3 3 0 013 3 3.06 3.06 0 01-3 3H16.05a3 3 0 01-3.05-3 3 3 0 013.05-3z"/><path class="bbcls-3" d="M21 128.42h43.74a8 8 0 018 8 8 8 0 01-8 8H21a8 8 0 01-8-8 8 8 0 018-8zM96.83 128.42h11.06a8 8 0 018 8 8 8 0 01-8 8H96.83a8 8 0 01-8-8 8 8 0 018-8z"/><path class="bbcls-2" d="M16.05 77.84H52a3 3 0 013 3 3 3 0 01-3 3.05H16a3 3 0 01-3-3.01 3 3 0 013.05-3.04z"/><circle class="bbcls-4" cx="109.45" cy="35.49" r="35.49"/><path class="bbcls-1" d="M104.72 51.67a4.54 4.54 0 01-3.19-1.32l-9.86-9.87A4.5 4.5 0 1198 34.12l6.69 6.68 20.16-20.16a4.5 4.5 0 116.39 6.36L107.9 50.35a4.53 4.53 0 01-3.18 1.32z"/></g></g></svg><svg fill="none" viewBox="0 0 6 11" id="icon-pagination" xmlns="http://www.w3.org/2000/svg"><path d="M1 1l4 4.5L1 10" stroke="#000"/></svg><svg fill="none" viewBox="0 0 22 18" id="icon-percent" xmlns="http://www.w3.org/2000/svg"><path d="M4.258 16.933L13.89 1.067h3.612l-9.39 15.866H4.258zm4.16-10.54c0 .907-.266 1.61-.795 2.108-.514.484-1.252.726-2.215.726H3.24c-.963 0-1.71-.242-2.24-.726C.488 8.003.231 7.3.231 6.393v-2.72c0-.906.257-1.602.77-2.085.53-.499 1.277-.748 2.24-.748h2.167c.963 0 1.701.25 2.215.748.53.483.794 1.179.794 2.085v2.72zm-2.89-2.72c0-.529-.28-.793-.843-.793h-.722c-.562 0-.843.264-.843.793v2.72c0 .53.281.794.843.794h.722c.562 0 .843-.265.843-.794v-2.72zm16.241 10.653c0 .907-.264 1.61-.794 2.108-.514.484-1.252.726-2.215.726h-2.167c-.963 0-1.71-.242-2.24-.726-.513-.498-.77-1.2-.77-2.108v-2.72c0-.906.257-1.601.77-2.085.53-.498 1.277-.748 2.24-.748h2.167c.963 0 1.701.25 2.215.748.53.484.794 1.179.794 2.085v2.72zm-2.889-2.72c0-.528-.28-.793-.843-.793h-.722c-.562 0-.843.265-.843.793v2.72c0 .53.281.794.843.794h.722c.562 0 .843-.265.843-.793v-2.72z" fill="#fff"/></svg><svg fill="none" viewBox="0 0 11 11" id="icon-phone" xmlns="http://www.w3.org/2000/svg"><path d="M10.712 8.073L9.173 6.538c-.55-.548-1.483-.33-1.703.384-.165.493-.714.767-1.209.657-1.098-.274-2.582-1.7-2.856-2.85-.165-.494.164-1.042.659-1.207.714-.219.934-1.15.384-1.7L2.91.289c-.44-.384-1.099-.384-1.483 0L.383 1.329c-1.044 1.097.11 4.003 2.692 6.58 2.582 2.576 5.494 3.782 6.593 2.686l1.044-1.042c.384-.438.384-1.096 0-1.48z" fill="#fff"/></svg><svg fill="none" viewBox="0 0 13 13" id="icon-phone-gray" xmlns="http://www.w3.org/2000/svg"><path d="M11.974 8.56a7.432 7.432 0 01-2.332-.371c-.363-.126-.776-.03-1.015.214L7.151 9.518C5.458 8.614 4.374 7.531 3.483 5.85l1.084-1.44c.273-.274.371-.674.254-1.048a7.43 7.43 0 01-.374-2.336C4.447.46 3.987 0 3.421 0H1.026C.46 0 0 .46 0 1.026 0 7.628 5.372 13 11.974 13 12.54 13 13 12.54 13 11.974V9.586c0-.566-.46-1.027-1.026-1.027z" fill="#BDBDBD"/></svg><svg fill="none" viewBox="0 0 10 6" id="icon-select" xmlns="http://www.w3.org/2000/svg"><path d="M5 6a.68.68 0 01-.495-.216l-4.3-4.526a.765.765 0 010-1.042.676.676 0 01.99 0L5 4.22 8.805.216a.676.676 0 01.99 0 .765.765 0 010 1.042l-4.3 4.526A.68.68 0 015 6z" fill="#000"/></svg><svg fill="none" viewBox="0 0 10 8" id="icon-select-caret" xmlns="http://www.w3.org/2000/svg"><path d="M5 7.081a.673.673 0 01-.495-.222l-4.3-4.648a.801.801 0 010-1.07.664.664 0 01.99 0L5 5.254 8.805 1.14a.664.664 0 01.99 0 .8.8 0 010 1.07l-4.3 4.649A.672.672 0 015 7.08z" fill="#000"/></svg><svg fill="none" viewBox="0 0 9 14" id="icon-shield" xmlns="http://www.w3.org/2000/svg"><path d="M4.5 1.265C2.403 2.373 0 2.377 0 2.377v5.36c.225 2.782 3.855 4.627 4.484 4.98v.018l.016-.009.016.01v-.019c.63-.353 4.259-2.198 4.484-4.98v-5.36s-2.403-.004-4.5-1.112z" fill="#282929"/><path d="M4.5 2.615c1.212.54 2.441.784 3.308.894V7.68c-.04.39-.193.793-.454 1.2-.256.398-.614.801-1.067 1.198-.627.55-1.305.977-1.783 1.254l-.004-.002-.004.002a11.39 11.39 0 01-1.783-1.254 5.833 5.833 0 01-1.067-1.197c-.261-.408-.414-.811-.454-1.2V3.508c.867-.11 2.096-.353 3.308-.894zm0-1.35C2.403 2.373 0 2.377 0 2.377v5.36c.225 2.782 3.855 4.627 4.484 4.98v.018l.016-.009.016.01v-.019c.63-.353 4.259-2.198 4.484-4.98v-5.36s-2.403-.004-4.5-1.112z" fill="#282929"/></svg><svg fill="none" viewBox="0 0 8 14" id="icon-sort" xmlns="http://www.w3.org/2000/svg"><path d="M4 .5l3.031 5.25H.97L4 .5zM4 13.5l3.031-5.25H.97L4 13.5z" fill="#4F4F4F"/></svg><svg fill="none" viewBox="0 0 7 10" id="icon-sort-name" xmlns="http://www.w3.org/2000/svg"><path d="M7 6l-.62-.62-2.442 2.444V.5h-.876v7.324L.62 5.381 0 6l3.5 3.5L7 6z" fill="#ADADAD"/></svg><svg fill="none" viewBox="0 0 13 10" id="icon-sort-size" xmlns="http://www.w3.org/2000/svg"><path stroke="#ADADAD" stroke-width="2" d="M0 2.149h6M0 5.149h9M0 8.149h13"/></svg><svg fill="none" viewBox="0 0 23 22" id="icon-star-off" xmlns="http://www.w3.org/2000/svg"><path d="M10.866.382A.71.71 0 0111.5 0a.71.71 0 01.633.382l2.758 5.421c.259.51.76.863 1.34.945l6.164.87a.702.702 0 01.57.467.672.672 0 01-.178.703l-4.46 4.22c-.42.397-.611.969-.512 1.529l1.052 5.957a.676.676 0 01-.281.671.724.724 0 01-.745.053l-5.513-2.813a1.828 1.828 0 00-1.656 0l-5.514 2.812a.725.725 0 01-.744-.052.677.677 0 01-.281-.67l1.053-5.958c.099-.56-.093-1.132-.512-1.53L.214 8.789a.672.672 0 01-.18-.703.702.702 0 01.571-.467l6.164-.87a1.777 1.777 0 001.34-.945l2.757-5.42z" fill="#BDBDBD"/></svg><svg fill="none" viewBox="0 0 23 22" id="icon-star-on" xmlns="http://www.w3.org/2000/svg"><path d="M10.866.382A.71.71 0 0111.5 0a.71.71 0 01.633.382l2.758 5.421c.259.51.76.863 1.34.945l6.164.87a.702.702 0 01.57.467.672.672 0 01-.178.703l-4.46 4.22c-.42.397-.611.969-.512 1.529l1.052 5.957a.676.676 0 01-.281.671.724.724 0 01-.745.053l-5.513-2.813a1.828 1.828 0 00-1.656 0l-5.514 2.812a.725.725 0 01-.744-.052.677.677 0 01-.281-.67l1.053-5.958c.099-.56-.093-1.132-.512-1.53L.214 8.789a.672.672 0 01-.18-.703.702.702 0 01.571-.467l6.164-.87a1.777 1.777 0 001.34-.945l2.757-5.42z" fill="#FFD903"/></svg><svg fill="none" viewBox="0 0 14 14" id="icon-star-red" xmlns="http://www.w3.org/2000/svg"><path d="M6.614.733A.432.432 0 017 .5c.164 0 .313.09.386.233l1.678 3.31c.158.31.463.526.815.576l3.753.531a.427.427 0 01.347.285.411.411 0 01-.109.43L11.155 8.44a1.037 1.037 0 00-.311.933l.64 3.636a.413.413 0 01-.171.41.44.44 0 01-.453.032l-3.356-1.717a1.11 1.11 0 00-1.008 0L3.14 13.452a.44.44 0 01-.453-.032.413.413 0 01-.171-.41l.64-3.636a1.037 1.037 0 00-.311-.934L.13 5.865a.411.411 0 01-.109-.43.427.427 0 01.347-.285l3.752-.53c.353-.05.658-.266.816-.577L6.614.733z" fill="#D51635"/></svg><svg fill="none" viewBox="0 0 14 14" id="icon-tooltip" xmlns="http://www.w3.org/2000/svg"><circle cx="7" cy="7" r="7" fill="#DDD"/><path d="M7 11.634a.81.81 0 100-1.62.81.81 0 000 1.62zM7 2.722a2.596 2.596 0 00-2.593 2.593.648.648 0 101.297 0c0-.715.581-1.297 1.296-1.297a1.298 1.298 0 010 2.593.648.648 0 00-.648.648v1.62a.648.648 0 101.296 0V7.826a2.597 2.597 0 001.944-2.51A2.596 2.596 0 007 2.722z" fill="#fff"/></svg><svg fill="none" viewBox="0 0 10 6" id="icon-trigger" xmlns="http://www.w3.org/2000/svg"><path d="M5 0a.68.68 0 00-.495.216l-4.3 4.526a.765.765 0 000 1.042.676.676 0 00.99 0L5 1.78l3.805 4.005a.676.676 0 00.99 0 .765.765 0 000-1.042L5.495.216A.68.68 0 005 0z" fill="#828282"/></svg><svg fill="none" viewBox="0 0 35 35" id="icon-user" xmlns="http://www.w3.org/2000/svg"><g clip-path="url(#brclip0)"><path d="M29.873 5.125A17.5 17.5 0 105.278 30.027 17.5 17.5 0 0029.873 5.125zM17.5 10.352a5.005 5.005 0 11-5.005 5.005 5.01 5.01 0 015.005-5.005zm0 12.86a8.192 8.192 0 018.045 6.524 14.617 14.617 0 01-16.09 0 8.192 8.192 0 018.045-6.523v-.002zm7.425.01a11.047 11.047 0 00-2.534-1.723 7.855 7.855 0 10-9.783 0 11.09 11.09 0 00-5.554 6.26 14.649 14.649 0 1120.891 0 11.074 11.074 0 00-3.02-4.538z" fill="#fff"/></g><defs><clipPath id="brclip0"><path fill="#fff" d="M0 0h35v35H0z"/></clipPath></defs></svg><svg fill="none" viewBox="0 0 15 8" id="icon-user-arrow" xmlns="http://www.w3.org/2000/svg"><path d="M1 1l6.5 6L14 1" stroke="#fff"/></svg><svg fill="none" viewBox="0 0 21 22" id="icon-warning-gray" xmlns="http://www.w3.org/2000/svg"><circle cx="10.5" cy="11" r="10.5" fill="#A4A4A4"/><path d="M10.474 4.716c-.562 0-1.017.456-1.017 1.018v6.554a1.018 1.018 0 102.035 0V5.734c0-.562-.456-1.018-1.018-1.018zM10.475 17.3a1.374 1.374 0 100-2.748 1.374 1.374 0 000 2.748z" fill="#fff"/></svg><svg fill="none" viewBox="0 0 21 22" id="main-list-01" xmlns="http://www.w3.org/2000/svg"><path d="M4.7 20.45a1.12 1.12 0 01-.653-.21 1.102 1.102 0 01-.434-1.143l1.35-5.9L.383 9.214A1.1 1.1 0 01.055 8.04c.138-.422.514-.72.96-.76l6.062-.547 2.397-5.56C9.65.764 10.053.5 10.5.5c.447 0 .85.264 1.026.671l2.397 5.561 6.061.546c.447.04.823.34.961.76a1.1 1.1 0 01-.326 1.176l-4.582 3.983 1.351 5.899c.099.434-.07.882-.434 1.142-.362.26-.845.28-1.227.053L10.5 17.195l-5.227 3.098a1.126 1.126 0 01-.573.157zm5.8-4.59c.199 0 .395.053.572.157l4.934 2.925-1.275-5.568a1.1 1.1 0 01.353-1.078l4.326-3.76-5.723-.516a1.114 1.114 0 01-.928-.67L10.5 2.101 8.239 7.35c-.16.374-.514.63-.925.668l-5.724.515 4.326 3.761c.31.27.445.682.353 1.08L4.994 18.94l4.934-2.924c.176-.104.373-.157.572-.157zM7.03 6.84v.002-.002zm6.938-.003v0z" fill="#D51635"/></svg><svg fill="none" viewBox="0 0 23 22" id="main-list-02" xmlns="http://www.w3.org/2000/svg"><path d="M20.376 18.35h-4.102a.43.43 0 01-.428-.431v-5.085h-.769a.427.427 0 01-.374-.224.434.434 0 01.013-.438L17.964 7a.427.427 0 01.722 0l3.248 5.172c.083.133.088.3.013.438a.427.427 0 01-.374.224h-.77v5.085a.43.43 0 01-.427.431zm-3.675-.862h3.248v-5.085a.43.43 0 01.427-.431h.42l-2.471-3.936-2.471 3.936h.42a.43.43 0 01.427.43v5.086zM10.062 20.45H3.488c-.246 0-.445-.221-.445-.494v-9.185H1.444a.44.44 0 01-.39-.256.541.541 0 01.016-.503L6.4.728A.436.436 0 016.776.5c.152 0 .293.086.374.228l5.331 9.284a.541.541 0 01.015.503.44.44 0 01-.39.256h-1.598v7.08c0 .272-.2.493-.445.493s-.444-.22-.444-.494v-7.573c0-.272.199-.493.444-.493h1.233l-4.52-7.872-4.52 7.872h1.233c.245 0 .444.22.444.493v9.185h5.686V17.34c0-.273.199-.494.444-.494.246 0 .445.221.445.494v2.617c0 .273-.2.494-.445.494z" fill="#D51635"/><path d="M20.376 18.35h-4.102a.43.43 0 01-.428-.431v-5.085h-.769a.427.427 0 01-.374-.224.434.434 0 01.013-.438L17.964 7a.427.427 0 01.722 0l3.248 5.172c.083.133.088.3.013.438a.427.427 0 01-.374.224h-.77v5.085a.43.43 0 01-.427.431zm-3.675-.862h3.248v-5.085a.43.43 0 01.427-.431h.42l-2.471-3.936-2.471 3.936h.42a.43.43 0 01.427.43v5.086zM10.062 20.45H3.488c-.246 0-.445-.221-.445-.494v-9.185H1.444a.44.44 0 01-.39-.256.541.541 0 01.016-.503L6.4.728A.436.436 0 016.776.5c.152 0 .293.086.374.228l5.331 9.284a.541.541 0 01.015.503.44.44 0 01-.39.256h-1.598v7.08c0 .272-.2.493-.445.493s-.444-.22-.444-.494v-7.573c0-.272.199-.493.444-.493h1.233l-4.52-7.872-4.52 7.872h1.233c.245 0 .444.22.444.493v9.185h5.686V17.34c0-.273.199-.494.444-.494.246 0 .445.221.445.494v2.617c0 .273-.2.494-.445.494z" stroke="#D51635" stroke-width=".25"/></svg><svg fill="none" viewBox="0 0 22 22" id="main-list-03" xmlns="http://www.w3.org/2000/svg"><path d="M5.935 6.574h1.233v1.234H5.935V6.574z" fill="#D51635"/><path d="M19.727 7a1.864 1.864 0 001.324-1.781 1.863 1.863 0 00-1.862-1.861h-.076a.45.45 0 010-.9V1.223c-.929 0-1.684.755-1.684 1.684 0 .928.755 1.683 1.684 1.683h.076a.628.628 0 010 1.256h-.423a7.647 7.647 0 00-5.387-2.215H9.956A3.749 3.749 0 006.263.505h-.922v2.247a3.657 3.657 0 01-3.653 3.653H0v5.458h.617a2.708 2.708 0 012.705 2.705v6.93h4.98v-2.524h3.818a4.745 4.745 0 004.19 2.525 4.746 4.746 0 004.74-4.741c0-.867-.233-1.68-.641-2.38.425-.97.642-2.003.642-3.075A7.628 7.628 0 0019.727 7zM7.067 17.74v2.478H4.556v-5.65a3.945 3.945 0 00-3.322-3.89v-3.04h.455a4.892 4.892 0 004.887-4.886v-.994a2.513 2.513 0 012.198 2.49v.617h4.606a6.445 6.445 0 016.134 8.4 4.723 4.723 0 00-3.203-1.248 4.746 4.746 0 00-4.639 5.724H7.068zm9.243 2.525a3.512 3.512 0 01-3.508-3.507 3.512 3.512 0 013.508-3.508 3.511 3.511 0 013.507 3.508 3.511 3.511 0 01-3.507 3.507z" fill="#D51635"/><path d="M15.138 7.743l.548-1.104a5.145 5.145 0 00-2.307-.54h-2.194v1.233h2.194c.617 0 1.209.139 1.759.411zM16.942 16.958v-2.421H15.71v2.421l-.79-.79-.873.872 2.28 2.28 2.28-2.28-.873-.872-.79.79z" fill="#D51635"/></svg><svg fill="none" viewBox="0 0 22 22" id="main-list-04" xmlns="http://www.w3.org/2000/svg"><path d="M21.38 12.861h-4.057V8.847c0-1.464-.898-2.816-2.529-3.809C11.68 3.143 6.838 3.136 3.7 4.853c-1.555.85-2.587 2.04-2.831 3.35-.084.444-.06 2.955-.06 6.935 0 1.183.845 2.273 2.305 3.069.823.448 1.734.73 2.706.835.05.006 15.56.028 15.56.028.345 0 .621-.28.621-.62v-4.968a.62.62 0 00-.62-.62zm-5.299 0h-1.648a6.88 6.88 0 001.648-1.213v1.213zM2.088 8.431c.377-2.018 3.474-3.6 6.998-3.6 1.922 0 3.72.45 5.062 1.268 2.58 1.57 2.574 3.928 0 5.495-2.016 1.228-4.859 1.517-7.215 1.069-2.851-.54-4.884-2.11-4.884-3.816 0-.14.013-.279.04-.416zm18.67 9.396l-2.773-.004v-1.03a.62.62 0 10-1.242 0v1.028l-2.07-.003v-1.024a.62.62 0 10-1.241 0v1.022l-2.07-.003v-1.02a.62.62 0 00-1.241 0v1.018l-2.07-.003v-1.014a.62.62 0 10-1.242 0v1.012l-.888-.002a6.027 6.027 0 01-2.214-.688c-1.042-.568-1.658-1.27-1.658-1.978v-3.49c.165.17.68.566.697.578 1.717 1.316 4.148 1.877 6.34 1.877h11.672v3.724z" fill="#D51635"/><path d="M8.177 11.037c2.001.39 4.178-.577 4.178-2.19 0-1.277-1.436-2.277-3.27-2.277-1.67 0-3.034.831-3.242 1.976-.018.098-.028.2-.028.3 0 1.035.95 1.916 2.362 2.19zM7.064 8.769c.084-.462.916-.957 2.021-.957 1.161 0 2.028.546 2.028 1.035 0 .626-1.335 1.237-2.698.971-.774-.15-1.358-.568-1.358-.971 0-.027.002-.052.007-.078z" fill="#D51635"/></svg><svg fill="none" viewBox="0 0 25 23" id="main-list-05" xmlns="http://www.w3.org/2000/svg"><mask id="bya" maskUnits="userSpaceOnUse" x="-.05" y="-.391" width="25" height="24" fill="#000"><path fill="#fff" d="M-.05-.391h25v24h-25z"/><path d="M22.659 16.06v-9.4a1.481 1.481 0 00-1.48-1.48h-9.582V2.661a.386.386 0 00-.089-.245L10.134.749a.386.386 0 00-.6.006L8.424 2.152 7.346.759a.386.386 0 00-.6-.013L5.338 2.412a.386.386 0 00-.091.25V5.18H3.893a1.482 1.482 0 00-1.48 1.48v9.4A1.481 1.481 0 00.95 17.54v4.574a.387.387 0 00.387.386H23.69a.386.386 0 00.387-.386v-4.575a1.482 1.482 0 00-1.418-1.478zM6.019 2.804l1.008-1.194 1.088 1.405a.387.387 0 00.303.15h.003a.387.387 0 00.304-.146L9.843 1.61l.98 1.19v5.168a.137.137 0 01-.136.137h-4.53a.137.137 0 01-.137-.137V2.803zM3.187 6.66a.708.708 0 01.707-.707h1.354v2.015a.911.911 0 00.91.91h4.53a.91.91 0 00.91-.91V5.953h9.582a.708.708 0 01.707.707v9.399h-18.7v-9.4zm20.117 15.067H1.723V17.54a.708.708 0 01.707-.707h20.166a.708.708 0 01.707.707v4.188z"/><path d="M14.73 18.939h-4.434a.387.387 0 000 .773h4.434a.386.386 0 100-.773zM7.478 10.89H5.65a.386.386 0 100 .773h1.828a.387.387 0 000-.773zM7.478 13.183H5.65a.386.386 0 100 .773h1.828a.387.387 0 000-.773zM11.206 10.89H9.38a.386.386 0 100 .773h1.827a.386.386 0 100-.773zM11.206 13.183H9.38a.386.386 0 100 .773h1.827a.386.386 0 100-.773zM19.508 13.183h-5.742a.386.386 0 100 .773h5.742a.387.387 0 000-.773zM14.016 11.46h5.222a.655.655 0 00.656-.654V8.371a.656.656 0 00-.656-.656h-5.222a.656.656 0 00-.656.656v2.435a.656.656 0 00.656.655zm.117-2.97h4.988v2.198h-4.987l-.001-2.198z"/></mask><path d="M22.659 16.06v-9.4a1.481 1.481 0 00-1.48-1.48h-9.582V2.661a.386.386 0 00-.089-.245L10.134.749a.386.386 0 00-.6.006L8.424 2.152 7.346.759a.386.386 0 00-.6-.013L5.338 2.412a.386.386 0 00-.091.25V5.18H3.893a1.482 1.482 0 00-1.48 1.48v9.4A1.481 1.481 0 00.95 17.54v4.574a.387.387 0 00.387.386H23.69a.386.386 0 00.387-.386v-4.575a1.482 1.482 0 00-1.418-1.478zM6.019 2.804l1.008-1.194 1.088 1.405a.387.387 0 00.303.15h.003a.387.387 0 00.304-.146L9.843 1.61l.98 1.19v5.168a.137.137 0 01-.136.137h-4.53a.137.137 0 01-.137-.137V2.803zM3.187 6.66a.708.708 0 01.707-.707h1.354v2.015a.911.911 0 00.91.91h4.53a.91.91 0 00.91-.91V5.953h9.582a.708.708 0 01.707.707v9.399h-18.7v-9.4zm20.117 15.067H1.723V17.54a.708.708 0 01.707-.707h20.166a.708.708 0 01.707.707v4.188z" fill="#D51635"/><path d="M14.73 18.939h-4.434a.387.387 0 000 .773h4.434a.386.386 0 100-.773zM7.478 10.89H5.65a.386.386 0 100 .773h1.828a.387.387 0 000-.773zM7.478 13.183H5.65a.386.386 0 100 .773h1.828a.387.387 0 000-.773zM11.206 10.89H9.38a.386.386 0 100 .773h1.827a.386.386 0 100-.773zM11.206 13.183H9.38a.386.386 0 100 .773h1.827a.386.386 0 100-.773zM19.508 13.183h-5.742a.386.386 0 100 .773h5.742a.387.387 0 000-.773zM14.016 11.46h5.222a.655.655 0 00.656-.654V8.371a.656.656 0 00-.656-.656h-5.222a.656.656 0 00-.656.656v2.435a.656.656 0 00.656.655zm.117-2.97h4.988v2.198h-4.987l-.001-2.198z" fill="#D51635"/><path d="M22.659 16.06v-9.4a1.481 1.481 0 00-1.48-1.48h-9.582V2.661a.386.386 0 00-.089-.245L10.134.749a.386.386 0 00-.6.006L8.424 2.152 7.346.759a.386.386 0 00-.6-.013L5.338 2.412a.386.386 0 00-.091.25V5.18H3.893a1.482 1.482 0 00-1.48 1.48v9.4A1.481 1.481 0 00.95 17.54v4.574a.387.387 0 00.387.386H23.69a.386.386 0 00.387-.386v-4.575a1.482 1.482 0 00-1.418-1.478zM6.019 2.804l1.008-1.194 1.088 1.405a.387.387 0 00.303.15h.003a.387.387 0 00.304-.146L9.843 1.61l.98 1.19v5.168a.137.137 0 01-.136.137h-4.53a.137.137 0 01-.137-.137V2.803zM3.187 6.66a.708.708 0 01.707-.707h1.354v2.015a.911.911 0 00.91.91h4.53a.91.91 0 00.91-.91V5.953h9.582a.708.708 0 01.707.707v9.399h-18.7v-9.4zm20.117 15.067H1.723V17.54a.708.708 0 01.707-.707h20.166a.708.708 0 01.707.707v4.188z" stroke="#D51635" stroke-width=".4" mask="url(#bya)"/><path d="M14.73 18.939h-4.434a.387.387 0 000 .773h4.434a.386.386 0 100-.773zM7.478 10.89H5.65a.386.386 0 100 .773h1.828a.387.387 0 000-.773zM7.478 13.183H5.65a.386.386 0 100 .773h1.828a.387.387 0 000-.773zM11.206 10.89H9.38a.386.386 0 100 .773h1.827a.386.386 0 100-.773zM11.206 13.183H9.38a.386.386 0 100 .773h1.827a.386.386 0 100-.773zM19.508 13.183h-5.742a.386.386 0 100 .773h5.742a.387.387 0 000-.773zM14.016 11.46h5.222a.655.655 0 00.656-.654V8.371a.656.656 0 00-.656-.656h-5.222a.656.656 0 00-.656.656v2.435a.656.656 0 00.656.655zm.117-2.97h4.988v2.198h-4.987l-.001-2.198z" stroke="#D51635" stroke-width=".4" mask="url(#bya)"/></svg><svg fill="none" viewBox="0 0 24 22" id="main-list-06" xmlns="http://www.w3.org/2000/svg"><path d="M4.234 11.57h2.224c.303 0 .596.04.875.117A3.331 3.331 0 0110.3 9.862h3.932c1.294 0 2.418.743 2.968 1.825.279-.076.572-.118.875-.118h2.224a3.332 3.332 0 013.328 3.329v3.555a2 2 0 01-1.997 1.997H2.902a2 2 0 01-1.997-1.997v-3.555a3.332 3.332 0 013.329-3.329zm13.326 1.62v5.929h4.07a.666.666 0 00.666-.666v-3.555a2 2 0 00-1.997-1.997h-2.224c-.181 0-.356.024-.523.07.005.072.008.146.008.22zM8.304 19.12h7.925V13.19a2 2 0 00-1.997-1.997H10.3a2 2 0 00-1.998 1.997v5.929zm-6.067-.666c0 .367.298.666.665.666h4.07V13.19c0-.073.003-.147.008-.22a1.991 1.991 0 00-.522-.07H4.234a2 2 0 00-1.997 1.998v3.555z" fill="#D51635"/><path d="M19.186 5.283a2.961 2.961 0 012.958 2.958 2.961 2.961 0 01-2.958 2.957 2.961 2.961 0 01-2.958-2.957 2.961 2.961 0 012.958-2.958zm0 4.584c.897 0 1.626-.73 1.626-1.626 0-.897-.73-1.626-1.626-1.626-.897 0-1.626.73-1.626 1.626 0 .897.73 1.626 1.626 1.626zM12.267 1.61a3.956 3.956 0 013.95 3.951 3.956 3.956 0 01-3.95 3.951 3.956 3.956 0 01-3.952-3.95 3.956 3.956 0 013.952-3.952zm0 6.571a2.623 2.623 0 002.62-2.62 2.623 2.623 0 00-2.62-2.62 2.623 2.623 0 00-2.62 2.62 2.623 2.623 0 002.62 2.62zM5.346 5.283a2.961 2.961 0 012.958 2.958 2.961 2.961 0 01-2.958 2.957 2.96 2.96 0 01-2.958-2.957 2.96 2.96 0 012.958-2.958zm0 4.584c.897 0 1.626-.73 1.626-1.626 0-.897-.73-1.626-1.626-1.626-.897 0-1.626.73-1.626 1.626 0 .897.73 1.626 1.626 1.626z" fill="#D51635"/></svg><svg fill="none" viewBox="0 0 16 16" id="nav-catalog" xmlns="http://www.w3.org/2000/svg"><path d="M14.302 13.352H4.94a.698.698 0 110-1.397h9.361a.699.699 0 010 1.397zM14.302 8.968H4.94a.699.699 0 110-1.398h9.361a.699.699 0 010 1.398zM14.302 4.583H4.94a.699.699 0 110-1.397h9.361a.699.699 0 010 1.397zM1.938 4.876a.938.938 0 100-1.876.938.938 0 000 1.876zM1.938 9.207a.938.938 0 100-1.876.938.938 0 000 1.876zM1.938 13.538a.938.938 0 100-1.876.938.938 0 000 1.876z" fill="#4F4F4F"/></svg><svg viewBox="0 0 528.93 529" id="nav-home" xmlns="http://www.w3.org/2000/svg"><defs><style>.cbcls-1{fill:#d51635}</style></defs><g id="cbLayer_2" data-name="Layer 2"><path class="cbcls-1" d="M512.71 225L304.09 16.42a56 56 0 00-79.26 0L16.52 224.73l-.32.32a56 56 0 0037.14 95.41c.45 0 .91.07 1.37.08v144.4A64.12 64.12 0 00118.77 529h81.55a24 24 0 0024-24V384.77a16.14 16.14 0 0116.12-16.12h48.1a16.14 16.14 0 0116.12 16.12V505a24 24 0 0024 24h81.55a64.12 64.12 0 0064.06-64.06V320.53a56 56 0 0038.5-95.5zm-224.2 95.68h-48.1a64.13 64.13 0 00-64.06 64.06v96.29h-57.58a16.14 16.14 0 01-16.12-16.12V296.58a24 24 0 00-24-24H55.84a8 8 0 01-5.57-2.35 8.13 8.13 0 01-1.76-8.83h.42L51 258 258.74 50.31a8.09 8.09 0 0111.45 0L478.58 258.7l.15.15a8.13 8.13 0 01-.08 11.38 7.94 7.94 0 01-5.73 2.38h-22.68a24 24 0 00-24 24v168.33a16.14 16.14 0 01-16.12 16.12h-57.55v-96.29a64.12 64.12 0 00-64.06-64.06z" id="cbLayer_1-2" data-name="Layer 1"/></g></svg><svg fill="none" viewBox="0 0 16 16" id="nav-orders" xmlns="http://www.w3.org/2000/svg"><path d="M15.484 1H.516A.516.516 0 000 1.516v2.839a.516.516 0 00.516.516h.258v10.322a.516.516 0 00.516.517h13.42a.516.516 0 00.516-.517V4.872h.258A.516.516 0 0016 4.355V1.516A.516.516 0 0015.484 1zm-.516 2.839h-4.645V2.032h4.645V3.84zM9.29 2.032v5.04L8.286 6.49a.516.516 0 00-.516 0l-1.06.596V2.032h2.58zm-8.258 0h4.645V3.84H1.032V2.032zm13.162 12.645H1.806V4.871h3.871v3.097a.516.516 0 00.775.449l1.576-.888 1.52.885a.516.516 0 00.775-.446V4.87h3.87v9.806z" fill="#4F4F4F"/><path d="M6.064 11.065H2.968a.516.516 0 000 1.032h3.096a.516.516 0 000-1.032zM4.903 12.871H2.968a.516.516 0 100 1.032h1.935a.516.516 0 100-1.032z" fill="#4F4F4F"/></svg><svg fill="none" viewBox="0 0 18 18" id="nav-profile" xmlns="http://www.w3.org/2000/svg"><path d="M15.842 9a6.82 6.82 0 01-2.027 4.857 5.068 5.068 0 00-2.656-2.993 3.579 3.579 0 001.423-2.857A3.586 3.586 0 009 4.425a3.586 3.586 0 00-3.582 3.582c0 1.166.56 2.202 1.423 2.857a5.07 5.07 0 00-2.655 2.993A6.82 6.82 0 012.157 9 6.85 6.85 0 019 2.158 6.85 6.85 0 0115.842 9zm-1.15-5.692A7.998 7.998 0 009 .95c-2.15 0-4.172.838-5.692 2.358A7.998 7.998 0 00.95 9c0 2.15.838 4.172 2.358 5.692A7.998 7.998 0 009 17.05c2.15 0 4.172-.838 5.692-2.358A7.998 7.998 0 0017.05 9c0-2.15-.838-4.172-2.358-5.692zM5.21 14.694A3.853 3.853 0 019 11.59a3.853 3.853 0 013.79 3.105A6.802 6.802 0 019 15.842c-1.4 0-2.704-.423-3.79-1.148zm1.415-6.687A2.377 2.377 0 019 5.633a2.377 2.377 0 012.375 2.374A2.377 2.377 0 019 10.382a2.377 2.377 0 01-2.375-2.375z" fill="#4F4F4F" stroke="#4F4F4F" stroke-width=".1"/></svg></svg>