<svg width="200" height="42" fill="none" xmlns="http://www.w3.org/2000/svg"><path fill-rule="evenodd" clip-rule="evenodd" d="M176.726 18.376L178.317 0h-5.478l-1.752 20.244 5.639-1.868zm-147.909 0L30.408 0H24.93l-1.756 20.244 5.643-1.868zM54.712 0l-1.214 14.008L43.835.006h-9.008L33.07 20.244l5.64-1.868 1.205-13.905 9.6 13.905h9.083L60.19 0h-5.478zm29.249 0l-1.214 14.008L73.084.006h-9.008L62.32 20.244l5.64-1.868 1.205-13.905 9.6 13.905h9.083L89.443 0H83.96zm30.263 0H92.346l-.37 4.262h8.16l-1.382 15.982 5.64-1.868 1.224-14.114h8.239L114.224 0zm72.924 13.851L188.347 0h-5.482l-1.591 18.376h18.216l.389-4.525h-12.731zM20.986 4.262L21.353 0h-19.6L0 20.244l5.643-1.868.54-6.223h13.424l.367-4.261H6.55l.317-3.63h14.12zm130.519 6.97l4.501-7.166 3.09 7.167h-7.591zm10.634 7.138h6.326L159.862 0h-7.25l-11.545 18.376h5.95l2.053-3.264h11.671l1.398 3.258zM133.808 8.174a1.984 1.984 0 01-1.616 1.014h-10.121l.404-4.695h10.024c1.265 0 1.528.764 1.613 1.2.149.837.039 1.7-.316 2.471l.012.01zM135.463 0c4.134 0 4.614 3.023 4.428 5.321-.089 1.056-.206 2.388-.358 2.808a4.767 4.767 0 01-1.157 1.852c-.883.87-2.132 1.284-3.325 1.48h.551c3.719.157 3.22 2.888 3.22 2.888l-.383 4.027h-5.488l.149-2.275c0-2.548-2.274-2.372-2.274-2.372h-9.148l-.411 4.712-.038-.039-5.598-.026L117.386 0h18.077z" fill="#fff"/><path d="M21.065 31.057l-3.748 10.847h-3.935l-1.951-5.561a39.384 39.384 0 01-.633-2.02l-.196-.667h-.092l-.2.684-.189.658c-.145.452-.3.902-.465 1.351l-2.002 5.555H3.76L.123 31.057h2.723l2.025 5.953c.124.383.278.91.461 1.582l.219.793.202.796h.092l.25-.796.246-.786c.129-.413.31-.94.541-1.582l2.16-5.96h3.122l2.104 5.96c.177.51.354 1.036.525 1.582l.234.786.247.796h.082l.228-.796.215-.793c.177-.642.338-1.176.483-1.604l2.063-5.931h2.72zm15.827 8.768h-6.05l-.873 2.08h-2.815l4.662-10.848h3.998l4.744 10.847h-2.76l-.906-2.08zm-.632-1.522l-2.417-5.648-2.381 5.648h4.798zm11.599 3.601V31.057h6.892c1.957 0 3.327.332 4.112.995.784.663 1.176 1.823 1.176 3.479 0 2.708-.316 4.448-.949 5.218-.632.77-2.052 1.155-4.26 1.155h-6.971zm2.66-1.733h3.796c1.265 0 2.088-.225 2.47-.677.381-.451.568-1.452.56-3 0-1.601-.168-2.618-.503-3.053-.336-.434-1.123-.648-2.363-.642h-3.954l-.006 7.372zm20.221-9.114v10.847h-2.66V31.057h2.66zm21.595 0v10.847h-4.507l-4.01-5.96c-.197-.295-.51-.815-.933-1.556l-.453-.78-.443-.776h-.1l.04.715.032.706.019 1.422v6.223h-2.66V31.057h4.51l3.644 5.5a73.33 73.33 0 011.12 1.772l.534.883.535.889h.091l-.031-.7-.029-.7-.022-1.399v-6.245h2.663zm14.079 5.076h6.186l.041 2.154c0 1.568-.381 2.579-1.145 3.032-.763.454-2.467.68-5.111.68-2.423 0-4.027-.3-4.814-.904-.787-.607-1.183-1.836-1.183-3.697 0-2.373.157-3.87.471-4.493.181-.365.431-.689.737-.953a3.002 3.002 0 011.044-.588c.791-.263 2.139-.396 4.046-.398 2.492 0 4.101.206 4.826.616.726.411 1.088 1.32 1.088 2.725h-2.691c-.048-.71-.247-1.152-.598-1.322-.351-.17-1.24-.26-2.657-.26-1.541 0-2.519.149-2.932.446-.413.297-.624.994-.633 2.09v1.087l.022 1.393c0 1.07.211 1.755.633 2.054.408.292 1.363.44 2.847.44 1.483 0 2.375-.126 2.767-.373.392-.247.592-.837.592-1.765v-.446h-3.536v-1.518zm31.058 0h6.174l.041 2.154c0 1.568-.383 2.579-1.148 3.032-.766.454-2.468.68-5.108.68-2.423 0-4.029-.3-4.818-.904-.787-.607-1.179-1.836-1.179-3.697 0-2.373.157-3.87.471-4.493a3.007 3.007 0 011.777-1.541c.795-.263 2.144-.396 4.046-.398 2.492 0 4.101.206 4.827.616.725.411 1.089 1.322 1.091 2.732h-2.695c-.044-.71-.247-1.153-.598-1.323-.351-.17-1.24-.26-2.654-.26-1.543 0-2.522.15-2.935.447-.411.295-.632.991-.632 2.089v1.088l.019 1.393c0 1.07.205 1.754.616 2.053.412.3 1.36.447 2.847.44 1.452 0 2.372-.125 2.768-.372.395-.247.588-.838.588-1.765v-.446h-3.498v-1.525zm16.564-3.343v2.798h6.573v1.518h-6.573v3.065h6.993v1.733h-9.653V31.057h9.593v1.733h-6.933zm23.557 7.035h-6.048l-.873 2.08h-2.815l4.666-10.848h3.991l4.745 10.847h-2.761l-.905-2.08zm-.633-1.522l-2.419-5.648-2.385 5.648h4.804zm11.602 3.601V31.057h6.908c1.721 0 2.906.23 3.556.69.651.462.974 1.284.974 2.506 0 1.095-.162 1.846-.487 2.247-.326.401-.99.68-1.999.834v.074c1.556.073 2.333.775 2.331 2.105v2.391h-2.66v-1.977c0-1.119-.712-1.678-2.135-1.678h-3.827v3.655h-2.661zm2.661-5.388h3.82c.911 0 1.515-.125 1.813-.376.297-.25.446-.755.446-1.514 0-.774-.127-1.284-.386-1.5-.26-.214-.819-.32-1.686-.32h-4.007v3.71z" fill="#fff"/></svg>